<?xml version="1.0" standalone="no"?><!DOCTYPE svg PUBLIC "-//W3C//DTD SVG 1.1//EN" "http://www.w3.org/Graphics/SVG/1.1/DTD/svg11.dtd"><svg t="1782207030596" class="icon" viewBox="0 0 1024 1024" version="1.1" xmlns="http://www.w3.org/2000/svg" p-id="11833" xmlns:xlink="http://www.w3.org/1999/xlink" width="200" height="200"><path d="M807.822222 551.389867c0-6.4512-2.935467-12.424533-7.7824-15.758223C748.316444 500.0192 637.917867 477.866667 512 477.866667c-125.917867 0-236.305067 22.152533-288.039822 57.764977-4.846933 3.333689-7.7824 9.307022-7.7824 15.758223 0 2.2528 0.364089 4.460089 1.046755 6.508089C202.251378 547.4304 193.422222 534.641778 193.422222 523.377778c0-50.267022 142.631822-91.022222 318.577778-91.022222s318.577778 40.7552 318.577778 91.022222c0 11.264-8.829156 24.052622-23.790934 34.520178 0.682667-2.048 1.035378-4.255289 1.035378-6.508089zM510.293333 769.092267a25.144889 25.144889 0 0 1-24.917333-25.349689c0.170667-13.858133 10.126222-38.479644 24.029867-38.320356 13.903644 0.159289 26.567111 24.974222 26.396444 38.832356a25.213156 25.213156 0 0 1-25.4976 24.837689z m-64.830577 39.185066a25.258667 25.258667 0 0 1-32.676978-14.153955c-5.085867-12.9024-5.154133-39.401244 7.816533-44.487111 12.970667-5.063111 34.042311 13.198222 39.128178 26.112a25.110756 25.110756 0 0 1-14.267733 32.540444z m164.340622-12.515555a25.315556 25.315556 0 0 1-34.736356 11.207111 25.031111 25.031111 0 0 1-9.602844-35.043556c6.621867-12.196978 26.908444-29.366044 39.150933-22.789689 12.242489 6.576356 11.810133 34.417778 5.188267 46.626134zM510.589156 910.222222c-34.042311-0.364089-61.496889-9.898667-61.121423-43.736178 0.386844-33.837511 28.398933-70.155378 62.418489-69.814044 34.019556 0.341333 61.189689 37.239467 60.791467 71.076978-0.398222 33.826133-28.080356 42.814578-62.099911 42.461866z" fill="#2c2c2c" p-id="11834"></path><path d="M910.222222 540.444444C910.222222 612.704711 731.932444 671.288889 512 671.288889s-398.222222-58.584178-398.222222-130.844445c0-3.7888 0.512-7.611733 1.513244-11.377777C133.996089 599.495111 296.812089 648.533333 512 648.533333c215.187911 0 378.003911-49.038222 396.708978-119.466666 1.001244 3.766044 1.513244 7.588978 1.513244 11.377777z" fill="#2c2c2c" p-id="11835"></path><path d="M512 375.466667c218.976711 0 396.094578 57.389511 430.717156 139.548444C974.085689 589.482667 1024 778.433422 1024 861.866667 1024 945.208889 775.168 1024 512 1024S0 945.208889 0 861.866667c0-97.746489 48.196267-270.813867 81.351111-347.022223C117.077333 432.765156 294.172444 375.466667 512 375.466667z m273.976889 71.441066C709.199644 422.035911 617.8816 409.6 512 409.6c-105.324089 0-196.369067 12.413156-273.112178 37.250844-70.394311 22.789689-112.469333 49.993956-126.225066 81.601423-17.8176 40.925867-34.907022 94.287644-51.3024 160.085333C43.2128 761.400889 34.133333 819.177244 34.133333 861.866667c0 8.487822 9.454933 19.308089 28.3648 32.483555 24.598756 17.123556 59.642311 32.893156 105.119289 47.297422C269.141333 973.789867 383.931733 989.866667 512 989.866667s242.858667-16.0768 344.382578-48.219023c45.476978-14.404267 80.520533-30.173867 105.130666-47.297422C980.400356 881.174756 989.866667 870.343111 989.866667 861.866667c0-36.488533-9.295644-92.706133-27.898311-168.675556-17.373867-70.917689-34.269867-125.906489-50.710756-164.932267-13.266489-31.470933-55.034311-58.595556-125.280711-81.351111z" fill="#2c2c2c" p-id="11836"></path></svg>