<svg xmlns="http://www.w3.org/2000/svg" style="display:none">
<symbol id="i-home-simple" viewBox="0 0 24 24"><path fill="none" stroke="currentColor" stroke-linecap="round" stroke-linejoin="round" stroke-width="1.5" d="M17 21H7a4 4 0 0 1-4-4v-6.292a4 4 0 0 1 1.927-3.421l5-3.03a4 4 0 0 1 4.146 0l5 3.03A4 4 0 0 1 21 10.707V17a4 4 0 0 1-4 4m-8-4h6"/></symbol>
<symbol id="i-multi-bubble" viewBox="0 0 24 24"><g fill="none" stroke="currentColor" stroke-linecap="round" stroke-linejoin="round" stroke-width="1.5"><path d="M7.5 22a5.5 5.5 0 1 0-4.764-2.75l-.461 2.475l2.475-.46A5.5 5.5 0 0 0 7.5 22"/><path d="M15.282 17.898A8 8 0 0 0 18 16.93l3.6.67l-.67-3.6A8 8 0 1 0 6.083 8.849"/></g></symbol>
<symbol id="i-camera" viewBox="0 0 24 24"><g fill="none" stroke="currentColor" stroke-linecap="round" stroke-linejoin="round" stroke-width="1.5"><path d="M2 19V9a2 2 0 0 1 2-2h.5a2 2 0 0 0 1.6-.8l2.22-2.96A.6.6 0 0 1 8.8 3h6.4a.6.6 0 0 1 .48.24L17.9 6.2a2 2 0 0 0 1.6.8h.5a2 2 0 0 1 2 2v10a2 2 0 0 1-2 2H4a2 2 0 0 1-2-2"/><path d="M12 17a4 4 0 1 0 0-8a4 4 0 0 0 0 8"/></g></symbol>
<symbol id="i-chat-bubble" viewBox="0 0 24 24"><g fill="none" stroke="currentColor" stroke-linecap="round" stroke-linejoin="round" stroke-width="1.5"><path fill="currentColor" d="M17 12.5a.5.5 0 1 0 0-1a.5.5 0 0 0 0 1m-5 0a.5.5 0 1 0 0-1a.5.5 0 0 0 0 1m-5 0a.5.5 0 1 0 0-1a.5.5 0 0 0 0 1"/><path d="M12 22c5.523 0 10-4.477 10-10S17.523 2 12 2S2 6.477 2 12c0 1.821.487 3.53 1.338 5L2.5 21.5l4.5-.838A9.96 9.96 0 0 0 12 22"/></g></symbol>
<symbol id="i-user-circle" viewBox="0 0 24 24"><g fill="none" stroke="currentColor" stroke-width="1.5"><path stroke-linecap="round" d="M7 18v-1a5 5 0 0 1 5-5v0a5 5 0 0 1 5 5v1"/><path stroke-linecap="round" stroke-linejoin="round" d="M12 12a3 3 0 1 0 0-6a3 3 0 0 0 0 6"/><circle cx="12" cy="12" r="10"/></g></symbol>
<symbol id="i-search" viewBox="0 0 24 24"><path fill="none" stroke="currentColor" stroke-linecap="round" stroke-linejoin="round" stroke-width="1.5" d="m17 17l4 4M3 11a8 8 0 1 0 16 0a8 8 0 0 0-16 0"/></symbol>
<symbol id="i-bell-notification" viewBox="0 0 24 24"><path fill="none" stroke="currentColor" stroke-linecap="round" stroke-linejoin="round" stroke-width="1.5" d="M18.134 11C18.715 16.375 21 18 21 18H3s3-2.133 3-9.6c0-1.697.632-3.325 1.757-4.525S10.41 2 12 2q.507 0 1 .09M19 8a3 3 0 1 0 0-6a3 3 0 0 0 0 6m-5.27 13a2 2 0 0 1-3.46 0"/></symbol>
<symbol id="i-ios-settings" viewBox="0 0 24 24"><g fill="none" stroke="currentColor" stroke-linecap="round" stroke-linejoin="round" stroke-width="1.5"><path d="M12 18a6 6 0 1 0 0-12a6 6 0 0 0 0 12m6-6h-6M9 6.803L12 12m0 0l-3 5.197"/><path stroke-dasharray="1 3" d="M12 19a7 7 0 1 0 0-14a7 7 0 0 0 0 14"/><path d="M12 22c5.523 0 10-4.477 10-10S17.523 2 12 2S2 6.477 2 12s4.477 10 10 10"/><path d="M12 15a3 3 0 1 0 0-6a3 3 0 0 0 0 6"/></g></symbol>
<symbol id="i-edit-pencil" viewBox="0 0 24 24"><path fill="none" stroke="currentColor" stroke-linecap="round" stroke-linejoin="round" stroke-width="1.5" d="m14.363 5.652l1.48-1.48a2 2 0 0 1 2.829 0l1.414 1.414a2 2 0 0 1 0 2.828l-1.48 1.48m-4.243-4.242l-9.616 9.615a2 2 0 0 0-.578 1.238l-.242 2.74a1 1 0 0 0 1.084 1.085l2.74-.242a2 2 0 0 0 1.24-.578l9.615-9.616m-4.243-4.242l4.243 4.242"/></symbol>
<symbol id="i-send-diagonal" viewBox="0 0 24 24"><path fill="none" stroke="currentColor" stroke-linecap="round" stroke-linejoin="round" stroke-width="1.5" d="M22.153 3.553L11.176 21.004l-1.67-8.596L2 7.898zM9.456 12.444l12.696-8.89"/></symbol>
<symbol id="i-heart" viewBox="0 0 24 24"><path fill="none" stroke="currentColor" stroke-linejoin="round" stroke-width="1.5" d="M22 8.862a5.95 5.95 0 0 1-1.654 4.13c-2.441 2.531-4.809 5.17-7.34 7.608c-.581.55-1.502.53-2.057-.045l-7.295-7.562c-2.205-2.286-2.205-5.976 0-8.261a5.58 5.58 0 0 1 8.08 0l.266.274l.265-.274A5.6 5.6 0 0 1 16.305 3c1.52 0 2.973.624 4.04 1.732A5.95 5.95 0 0 1 22 8.862Z"/></symbol>
<symbol id="i-healthcare" viewBox="0 0 24 24"><g fill="none" stroke="currentColor" stroke-linecap="round" stroke-linejoin="round" stroke-width="1.5"><path d="m18 20l3.824-3.824a.6.6 0 0 0 .176-.424V10.5A1.5 1.5 0 0 0 20.5 9v0a1.5 1.5 0 0 0-1.5 1.5V15"/><path d="m18 16l.858-.858a.48.48 0 0 0 .142-.343v0a.49.49 0 0 0-.268-.433l-.443-.221a2 2 0 0 0-2.308.374l-.895.895a2 2 0 0 0-.586 1.414V20M6 20l-3.824-3.824A.6.6 0 0 1 2 15.752V10.5A1.5 1.5 0 0 1 3.5 9v0A1.5 1.5 0 0 1 5 10.5V15"/><path d="m6 16l-.858-.858A.5.5 0 0 1 5 14.799v0c0-.183.104-.35.268-.433l.443-.221a2 2 0 0 1 2.308.374l.895.895a2 2 0 0 1 .586 1.414V20m4.167-8h-3.334V9.667H8V6.333h2.333V4h3.334v2.333H16v3.334h-2.333z"/></g></symbol>
<symbol id="i-medal" viewBox="0 0 24 24"><path fill="none" stroke="currentColor" stroke-linecap="round" stroke-linejoin="round" stroke-width="1.5" d="M14.272 10.445L18 2m-8.684 8.632L5 2m7.762 8.048L8.835 2m5.525 0l-1.04 2.5M6 16a6 6 0 1 0 12 0a6 6 0 0 0-12 0"/></symbol>
<symbol id="i-crown" viewBox="0 0 24 24"><path fill="none" stroke="currentColor" stroke-linecap="round" stroke-linejoin="round" stroke-width="1.5" d="M19.2 17L21 7l-6.3 3L12 7l-2.7 3L3 7l1.8 10z"/></symbol>
<symbol id="i-shield" viewBox="0 0 24 24"><path fill="none" stroke="currentColor" stroke-linecap="round" stroke-linejoin="round" stroke-width="1.5" d="M5 18L3.13 4.913a.996.996 0 0 1 .774-1.114l7.662-1.703a2 2 0 0 1 .868 0L20.096 3.8c.51.113.848.596.774 1.114L19 18c-.07.495-.5 3.5-7 3.5S5.07 18.495 5 18"/></symbol>
<symbol id="i-lock" viewBox="0 0 24 24"><path fill="none" stroke="currentColor" stroke-linecap="round" stroke-linejoin="round" stroke-width="1.5" d="M16 12h1.4a.6.6 0 0 1 .6.6v6.8a.6.6 0 0 1-.6.6H6.6a.6.6 0 0 1-.6-.6v-6.8a.6.6 0 0 1 .6-.6H8m8 0V8c0-1.333-.8-4-4-4S8 6.667 8 8v4m8 0H8"/></symbol>
<symbol id="i-eye" viewBox="0 0 24 24"><g fill="none" stroke="currentColor" stroke-linecap="round" stroke-linejoin="round" stroke-width="1.5"><path d="M3 13c3.6-8 14.4-8 18 0"/><path d="M12 17a3 3 0 1 1 0-6a3 3 0 0 1 0 6"/></g></symbol>
<symbol id="i-mail" viewBox="0 0 24 24"><g fill="none" stroke="currentColor" stroke-width="1.5"><path stroke-linecap="round" stroke-linejoin="round" d="m7 9l5 3.5L17 9"/><path d="M2 17V7a2 2 0 0 1 2-2h16a2 2 0 0 1 2 2v10a2 2 0 0 1-2 2H4a2 2 0 0 1-2-2Z"/></g></symbol>
<symbol id="i-globe" viewBox="0 0 24 24"><g fill="none" stroke="currentColor" stroke-linecap="round" stroke-linejoin="round" stroke-width="1.5"><path d="M12 22c5.523 0 10-4.477 10-10S17.523 2 12 2S2 6.477 2 12s4.477 10 10 10"/><path d="m2.5 12.5l5.5 2L7 18l1 3m9-.5l-.5-2.5l-2.5-1v-3.5l3-1l4.5.5M19 5.5L18.5 7l-3.5.5v3l2.5-1h2l2 1m-19 0l2.5-2L7.5 8l2-3l-1-2"/></g></symbol>
<symbol id="i-language" viewBox="0 0 24 24"><g fill="none" stroke="currentColor" stroke-linecap="round" stroke-linejoin="round" stroke-width="1.5"><path d="M2 12c0 5.523 4.477 10 10 10s10-4.477 10-10S17.523 2 12 2S2 6.477 2 12"/><path d="M13 2.05S16 6 16 12s-3 9.95-3 9.95m-2 0S8 18 8 12s3-9.95 3-9.95M2.63 15.5h18.74m-18.74-7h18.74"/></g></symbol>
<symbol id="i-palette" viewBox="0 0 24 24"><g fill="none" stroke="currentColor" stroke-width="1.5"><path d="M20.51 9.54a1.9 1.9 0 0 1-1 1.09A7 7 0 0 0 15.37 17q.002.707.14 1.4a2.16 2.16 0 0 1-.31 1.65a1.8 1.8 0 0 1-1.21.8q-.804.15-1.62.15a9 9 0 0 1-9-9.28A9.05 9.05 0 0 1 11.85 3h.51a9 9 0 0 1 8.06 5a2 2 0 0 1 .09 1.52z"/><path stroke-linecap="round" stroke-linejoin="round" d="m8 16.01l.01-.011M6 12.01l.01-.011M8 8.01l.01-.011M12 6.01l.01-.011M16 8.01l.01-.011"/></g></symbol>
<symbol id="i-key" viewBox="0 0 24 24"><path fill="none" stroke="currentColor" stroke-linecap="round" stroke-linejoin="round" stroke-width="1.5" d="M10 12a4 4 0 1 1-8 0a4 4 0 0 1 8 0m0 0h12v3m-4-3v3"/></symbol>
<symbol id="i-bookmark" viewBox="0 0 24 24"><path fill="none" stroke="currentColor" stroke-linecap="round" stroke-linejoin="round" stroke-width="1.5" d="M5 21V5a2 2 0 0 1 2-2h10a2 2 0 0 1 2 2v16l-5.918-3.805a2 2 0 0 0-2.164 0z"/></symbol>
<symbol id="i-list" viewBox="0 0 24 24"><path fill="none" stroke="currentColor" stroke-linecap="round" stroke-linejoin="round" stroke-width="1.5" d="M8 6h12M4 6.01l.01-.011M4 12.01l.01-.011M4 18.01l.01-.011M8 12h12M8 18h12"/></symbol>
<symbol id="i-filter" viewBox="0 0 24 24"><path fill="none" stroke="currentColor" stroke-linecap="round" stroke-linejoin="round" stroke-width="1.5" d="M4 3h16a1 1 0 0 1 1 1v1.586a1 1 0 0 1-.293.707l-6.414 6.414a1 1 0 0 0-.293.707v6.305a1 1 0 0 1-1.243.97l-2-.5a1 1 0 0 1-.757-.97v-5.805a1 1 0 0 0-.293-.707L3.293 6.293A1 1 0 0 1 3 5.586V4a1 1 0 0 1 1-1"/></symbol>
<symbol id="i-message-text" viewBox="0 0 24 24"><g fill="none" stroke="currentColor" stroke-width="1.5"><path stroke-linecap="round" stroke-linejoin="round" d="M7 12h10M7 8h6"/><path d="M3 20.29V5a2 2 0 0 1 2-2h14a2 2 0 0 1 2 2v10a2 2 0 0 1-2 2H7.961a2 2 0 0 0-1.561.75l-2.331 2.914A.6.6 0 0 1 3 20.29Z"/></g></symbol>
<symbol id="i-chat-lines" viewBox="0 0 24 24"><path fill="none" stroke="currentColor" stroke-linecap="round" stroke-linejoin="round" stroke-width="1.5" d="M8 10h8m-8 4h4m0 8c5.523 0 10-4.477 10-10S17.523 2 12 2S2 6.477 2 12c0 1.821.487 3.53 1.338 5L2.5 21.5l4.5-.838A9.96 9.96 0 0 0 12 22"/></symbol>
<symbol id="i-media-image" viewBox="0 0 24 24"><g fill="none" stroke="currentColor" stroke-linecap="round" stroke-linejoin="round" stroke-width="1.5"><path d="M21 3.6v16.8a.6.6 0 0 1-.6.6H3.6a.6.6 0 0 1-.6-.6V3.6a.6.6 0 0 1 .6-.6h16.8a.6.6 0 0 1 .6.6"/><path d="m3 16l7-3l11 5m-5-8a2 2 0 1 1 0-4a2 2 0 0 1 0 4"/></g></symbol>
<symbol id="i-fingerprint-check-circle" viewBox="0 0 24 24"><g fill="none" stroke="currentColor" stroke-linecap="round" stroke-linejoin="round" stroke-width="1.5"><path d="M7 16v-4.639c0-.51.1-.999.285-1.453M17 16v-3.185m-7.778-5.08A5.5 5.5 0 0 1 12 7c2.28 0 4.203 1.33 4.805 3.15M10 17v-2.177M14 17v-5.147C14 10.83 13.105 10 12 10s-2 .83-2 1.853v.794"/><path d="M12 22C6.477 22 2 17.523 2 12S6.477 2 12 2s10 4.477 10 10a10 10 0 0 1-.458 3M15.5 20.5l2 2l5-5"/></g></symbol>
<symbol id="i-nav-arrow-left" viewBox="0 0 24 24"><path fill="none" stroke="currentColor" stroke-linecap="round" stroke-linejoin="round" stroke-width="1.5" d="m15 6l-6 6l6 6"/></symbol>
<symbol id="i-nav-arrow-right" viewBox="0 0 24 24"><path fill="none" stroke="currentColor" stroke-linecap="round" stroke-linejoin="round" stroke-width="1.5" d="m9 6l6 6l-6 6"/></symbol>
<symbol id="i-plus" viewBox="0 0 24 24"><path fill="none" stroke="currentColor" stroke-linecap="round" stroke-linejoin="round" stroke-width="1.5" d="M6 12h6m6 0h-6m0 0V6m0 6v6"/></symbol>
<symbol id="i-plus-circle" viewBox="0 0 24 24"><path fill="none" stroke="currentColor" stroke-linecap="round" stroke-linejoin="round" stroke-width="1.5" d="M8 12h4m4 0h-4m0 0V8m0 4v4m0 6c5.523 0 10-4.477 10-10S17.523 2 12 2S2 6.477 2 12s4.477 10 10 10"/></symbol>
<symbol id="i-check" viewBox="0 0 24 24"><path fill="none" stroke="currentColor" stroke-linecap="round" stroke-linejoin="round" stroke-width="1.5" d="m5 13l4 4L19 7"/></symbol>
<symbol id="i-check-circle" viewBox="0 0 24 24"><g fill="none" stroke="currentColor" stroke-linecap="round" stroke-linejoin="round" stroke-width="1.5"><path d="m7 12.5l3 3l7-7"/><path d="M12 22c5.523 0 10-4.477 10-10S17.523 2 12 2S2 6.477 2 12s4.477 10 10 10"/></g></symbol>
<symbol id="i-xmark" viewBox="0 0 24 24"><path fill="none" stroke="currentColor" stroke-linecap="round" stroke-linejoin="round" stroke-width="1.5" d="M6.758 17.243L12.001 12m5.243-5.243L12 12m0 0L6.758 6.757M12.001 12l5.243 5.243"/></symbol>
<symbol id="i-xmark-circle" viewBox="0 0 24 24"><path fill="none" stroke="currentColor" stroke-linecap="round" stroke-linejoin="round" stroke-width="1.5" d="M9.172 14.828L12.001 12m2.828-2.828L12.001 12m0 0L9.172 9.172M12.001 12l2.828 2.828M12 22c5.523 0 10-4.477 10-10S17.523 2 12 2S2 6.477 2 12s4.477 10 10 10"/></symbol>
<symbol id="i-trash" viewBox="0 0 24 24"><path fill="none" stroke="currentColor" stroke-linecap="round" stroke-linejoin="round" stroke-width="1.5" d="m20 9l-1.995 11.346A2 2 0 0 1 16.035 22h-8.07a2 2 0 0 1-1.97-1.654L4 9m17-3h-5.625M3 6h5.625m0 0V4a2 2 0 0 1 2-2h2.75a2 2 0 0 1 2 2v2m-6.75 0h6.75"/></symbol>
<symbol id="i-share-ios" viewBox="0 0 24 24"><path fill="none" stroke="currentColor" stroke-linecap="round" stroke-linejoin="round" stroke-width="1.5" d="M20 13v6a2 2 0 0 1-2 2H6a2 2 0 0 1-2-2v-6m8 2V3m0 0L8.5 6.5M12 3l3.5 3.5"/></symbol>
<symbol id="i-qr-code" viewBox="0 0 24 24"><path fill="none" stroke="currentColor" stroke-linecap="round" stroke-linejoin="round" stroke-width="1.5" d="M15 12v3M12 3v3m6 6v3m-6 3h9m-3 3h3M6 12h3M6 6.011L6.01 6M12 12.011l.01-.011M3 12.011L3.01 12M12 9.011L12.01 9M12 15.011l.01-.011M15 21.011l.01-.011m-3.01.011l.01-.011M21 12.011l.01-.011M21 15.011l.01-.011M18 6.011L18.01 6M9 3.6v4.8a.6.6 0 0 1-.6.6H3.6a.6.6 0 0 1-.6-.6V3.6a.6.6 0 0 1 .6-.6h4.8a.6.6 0 0 1 .6.6m12 0v4.8a.6.6 0 0 1-.6.6h-4.8a.6.6 0 0 1-.6-.6V3.6a.6.6 0 0 1 .6-.6h4.8a.6.6 0 0 1 .6.6M6 18.011L6.01 18M9 15.6v4.8a.6.6 0 0 1-.6.6H3.6a.6.6 0 0 1-.6-.6v-4.8a.6.6 0 0 1 .6-.6h4.8a.6.6 0 0 1 .6.6"/></symbol>
<symbol id="i-flash" viewBox="0 0 24 24"><path fill="none" stroke="currentColor" stroke-linecap="round" stroke-linejoin="round" stroke-width="1.5" d="M13 10V3L5 14h6v7l8-11z"/></symbol>
<symbol id="i-fire-flame" viewBox="0 0 24 24"><g fill="none" stroke="currentColor" stroke-linecap="round" stroke-linejoin="round" stroke-width="1.5"><path d="M8 18c0 2.415 1.79 3 4 3c3.759 0 5-2.5 2.5-7.5C11 18 10.5 11 11 9c-1.5 3-3 5.818-3 9"/><path d="M12 21c5.05 0 8-2.904 8-7.875C20 8.155 12 3 12 3S4 8.154 4 13.125C4 18.095 6.95 21 12 21"/></g></symbol>
<symbol id="i-leaf" viewBox="0 0 24 24"><g fill="none" stroke="currentColor" stroke-linecap="round" stroke-linejoin="round" stroke-width="1.5"><path d="M7 21s.5-4.5 4-8.5"/><path d="m19.13 4.242l.594 6.175c.374 3.886-2.54 7.346-6.425 7.72c-3.813.367-7.267-2.42-7.634-6.233a6.936 6.936 0 0 1 6.239-7.569l6.571-.632a.6.6 0 0 1 .655.54"/></g></symbol>
<symbol id="i-cloud" viewBox="0 0 24 24"><path fill="none" stroke="currentColor" stroke-linejoin="round" stroke-width="1.5" d="M12 4c-6 0-6 4-6 6c-1.667 0-5 1-5 5s3.333 5 5 5h12c1.667 0 5-1 5-5s-3.333-5-5-5c0-2 0-6-6-6Z"/></symbol>
<symbol id="i-phone" viewBox="0 0 24 24"><path fill="none" stroke="currentColor" stroke-linecap="round" stroke-linejoin="round" stroke-width="1.5" d="M18.118 14.702L14 15.5c-2.782-1.396-4.5-3-5.5-5.5l.77-4.13L7.815 2H4.064c-1.128 0-2.016.932-1.847 2.047c.42 2.783 1.66 7.83 5.283 11.453c3.805 3.805 9.286 5.456 12.302 6.113c1.165.253 2.198-.655 2.198-1.848v-3.584z"/></symbol>
<symbol id="i-wallet" viewBox="0 0 24 24"><g fill="none" stroke="currentColor" stroke-width="1.5"><path d="M19 20H5a2 2 0 0 1-2-2V9a2 2 0 0 1 2-2h14a2 2 0 0 1 2 2v9a2 2 0 0 1-2 2Z"/><path fill="currentColor" stroke-linecap="round" stroke-linejoin="round" d="M16.5 14a.5.5 0 1 1 0-1a.5.5 0 0 1 0 1"/><path d="M18 7V5.603a2 2 0 0 0-2.515-1.932l-11 2.933A2 2 0 0 0 3 8.537V9"/></g></symbol>
<symbol id="i-credit-card" viewBox="0 0 24 24"><path fill="none" stroke="currentColor" stroke-linecap="round" stroke-linejoin="round" stroke-width="1.5" d="M22 9v8a2 2 0 0 1-2 2H4a2 2 0 0 1-2-2V7a2 2 0 0 1 2-2h16a2 2 0 0 1 2 2zm0 0H6"/></symbol>
<symbol id="i-info-circle" viewBox="0 0 24 24"><path fill="none" stroke="currentColor" stroke-linecap="round" stroke-linejoin="round" stroke-width="1.5" d="M12 11.5v5m0-8.99l.01-.011M12 22c5.523 0 10-4.477 10-10S17.523 2 12 2S2 6.477 2 12s4.477 10 10 10"/></symbol>
<symbol id="i-help-circle" viewBox="0 0 24 24"><g fill="none" stroke="currentColor" stroke-linecap="round" stroke-linejoin="round" stroke-width="1.5"><path d="M12 22c5.523 0 10-4.477 10-10S17.523 2 12 2S2 6.477 2 12s4.477 10 10 10"/><path d="M9 9c0-3.5 5.5-3.5 5.5 0c0 2.5-2.5 2-2.5 5m0 4.01l.01-.011"/></g></symbol>
<symbol id="i-trophy" viewBox="0 0 24 24"><g fill="none" stroke="currentColor" stroke-linecap="round" stroke-linejoin="round" stroke-width="1.5"><path d="M6.745 4h10.568s-.88 13.257-5.284 13.257c-2.15 0-3.461-3.164-4.239-6.4C6.976 7.468 6.745 4 6.745 4"/><path d="M17.313 4s.921-.983 1.687-1c1.5-.034 1.777 1 1.777 1c.294.61.529 2.194-.88 3.657s-2.987 2.743-3.629 3.2M6.745 4S5.785 3.006 5 3c-1.5-.012-1.777 1-1.777 1c-.294.61-.529 2.194.88 3.657a30 30 0 0 0 3.687 3.2M8.507 20c0-1.829 3.522-2.743 3.522-2.743s3.523.914 3.523 2.743z"/></g></symbol>
<symbol id="i-map-pin" viewBox="0 0 24 24"><g fill="none" stroke="currentColor" stroke-width="1.5"><path d="M20 10c0 4.418-8 12-8 12s-8-7.582-8-12a8 8 0 1 1 16 0Z"/><path fill="currentColor" stroke-linecap="round" stroke-linejoin="round" d="M12 11a1 1 0 1 0 0-2a1 1 0 0 0 0 2"/></g></symbol>
<symbol id="i-calendar" viewBox="0 0 24 24"><path fill="none" stroke="currentColor" stroke-linecap="round" stroke-linejoin="round" stroke-width="1.5" d="M15 4V2m0 2v2m0-2h-4.5M3 10v9a2 2 0 0 0 2 2h14a2 2 0 0 0 2-2v-9zm0 0V6a2 2 0 0 1 2-2h2m0-2v4m14 4V6a2 2 0 0 0-2-2h-.5"/></symbol>
<symbol id="i-compass" viewBox="0 0 24 24"><g fill="none" stroke="currentColor" stroke-linecap="round" stroke-linejoin="round" stroke-width="1.5"><path d="M10.586 10.586L16.95 7.05l-3.536 6.364L7.05 16.95z"/><path d="M12 22c5.523 0 10-4.477 10-10S17.523 2 12 2S2 6.477 2 12s4.477 10 10 10"/></g></symbol>
<symbol id="i-open-book" viewBox="0 0 24 24"><g fill="none" stroke="currentColor" stroke-linecap="round" stroke-width="1.5"><path d="M12 21V7a2 2 0 0 1 2-2h7.4a.6.6 0 0 1 .6.6v13.114M12 21V7a2 2 0 0 0-2-2H2.6a.6.6 0 0 0-.6.6v13.114M14 19h8m-12 0H2"/><path stroke-linejoin="round" d="M12 21a2 2 0 0 1 2-2m-2 2a2 2 0 0 0-2-2"/></g></symbol>
<symbol id="i-microphone" viewBox="0 0 24 24"><g fill="none" stroke="currentColor" stroke-width="1.5"><rect width="6" height="12" x="9" y="2" rx="3"/><path stroke-linecap="round" stroke-linejoin="round" d="M5 10v1a7 7 0 0 0 7 7v0a7 7 0 0 0 7-7v-1m-7 8v4m0 0H9m3 0h3"/></g></symbol>
<symbol id="i-bluetooth" viewBox="0 0 24 24"><path fill="none" stroke="currentColor" stroke-linecap="round" stroke-linejoin="round" stroke-width="1.5" d="m6.75 8l10.5 8.5l-5.5 5.5V2l5.5 5.5L6.75 16"/></symbol>
<symbol id="i-sound-low" viewBox="0 0 24 24"><g fill="none" stroke="currentColor" stroke-width="1.5"><path stroke-linecap="round" stroke-linejoin="round" d="M19.5 7.5S21 9 21 11.5s-1.5 4-1.5 4"/><path d="M2 13.857v-3.714a2 2 0 0 1 2-2h2.9a1 1 0 0 0 .55-.165l6-3.956a1 1 0 0 1 1.55.835v14.286a1 1 0 0 1-1.55.835l-6-3.956a1 1 0 0 0-.55-.165H4a2 2 0 0 1-2-2Z"/></g></symbol>
<symbol id="i-arrow-down-left" viewBox="0 0 24 24"><path fill="none" stroke="currentColor" stroke-linecap="round" stroke-linejoin="round" stroke-width="1.5" d="M19 6L6 19m0 0V6.52M6 19h12.48"/></symbol>
<symbol id="i-star" viewBox="0 0 24 24"><path fill="none" stroke="currentColor" stroke-linecap="round" stroke-linejoin="round" stroke-width="1.5" d="m8.587 8.236l2.598-5.232a.911.911 0 0 1 1.63 0l2.598 5.232l5.808.844a.902.902 0 0 1 .503 1.542l-4.202 4.07l.992 5.75c.127.738-.653 1.3-1.32.952L12 18.678l-5.195 2.716c-.666.349-1.446-.214-1.319-.953l.992-5.75l-4.202-4.07a.902.902 0 0 1 .503-1.54z"/></symbol>
<symbol id="i-refresh" viewBox="0 0 24 24"><g fill="none" stroke="currentColor" stroke-linecap="round" stroke-linejoin="round" stroke-width="1.5"><path d="M21.888 13.5C21.164 18.311 17.013 22 12 22C6.477 22 2 17.523 2 12S6.477 2 12 2c4.1 0 7.625 2.468 9.168 6"/><path d="M17 8h4.4a.6.6 0 0 0 .6-.6V3"/></g></symbol>
<symbol id="i-pause" viewBox="0 0 24 24"><path fill="none" stroke="currentColor" stroke-width="1.5" d="M6 18.4V5.6a.6.6 0 0 1 .6-.6h2.8a.6.6 0 0 1 .6.6v12.8a.6.6 0 0 1-.6.6H6.6a.6.6 0 0 1-.6-.6Zm8 0V5.6a.6.6 0 0 1 .6-.6h2.8a.6.6 0 0 1 .6.6v12.8a.6.6 0 0 1-.6.6h-2.8a.6.6 0 0 1-.6-.6Z"/></symbol>
<symbol id="i-phone-xmark" viewBox="0 0 24 24"><path fill="none" stroke="currentColor" stroke-linecap="round" stroke-linejoin="round" stroke-width="1.5" d="m17.121 7.364l2.122-2.121m2.121-2.122l-2.121 2.122m0 0L17.12 3.12m2.122 2.122l2.121 2.121m-3.245 7.339L14 15.5c-2.782-1.396-4.5-3-5.5-5.5l.77-4.13L7.815 2H4.064c-1.128 0-2.016.932-1.847 2.047c.42 2.783 1.66 7.83 5.283 11.453c3.805 3.805 9.286 5.456 12.302 6.113c1.165.253 2.198-.655 2.198-1.848v-3.584z"/></symbol>
<symbol id="i-hourglass" viewBox="0 0 24 24"><path fill="none" stroke="currentColor" stroke-linecap="round" stroke-linejoin="round" stroke-width="1.5" d="M12 12a7 7 0 0 0 7-7H5a7 7 0 0 0 7 7m0 0a7 7 0 0 1 7 7H5a7 7 0 0 1 7-7M5 2h14M5 22h14"/></symbol>
<symbol id="i-arrow-up-right" viewBox="0 0 24 24"><path fill="none" stroke="currentColor" stroke-linecap="round" stroke-linejoin="round" stroke-width="1.5" d="M6 19L19 6m0 0v12.48M19 6H6.52"/></symbol>
<symbol id="i-long-arrow-down-left" viewBox="0 0 24 24"><g fill="none" stroke="currentColor" stroke-linecap="round" stroke-linejoin="round" stroke-width="1.5"><path d="m10.25 19.25l-3.5-3.5l3.5-3.5"/><path d="M6.75 15.75h6a4 4 0 0 0 4-4v-7"/></g></symbol>
<symbol id="i-battery-full" viewBox="0 0 24 24"><g fill="none" stroke="currentColor" stroke-width="1.5"><path stroke-linecap="round" stroke-linejoin="round" d="M23 10v4"/><path d="M1 16V8a2 2 0 0 1 2-2h15a2 2 0 0 1 2 2v8a2 2 0 0 1-2 2H3a2 2 0 0 1-2-2Z"/><path d="M4 14.4V9.6a.6.6 0 0 1 .6-.6h11.8a.6.6 0 0 1 .6.6v4.8a.6.6 0 0 1-.6.6H4.6a.6.6 0 0 1-.6-.6Z"/></g></symbol>
<symbol id="i-phone-income" viewBox="0 0 24 24"><path fill="none" stroke="currentColor" stroke-linecap="round" stroke-linejoin="round" stroke-width="1.5" d="M22 5h-6m0 0l3-3m-3 3l3 3m-.882 6.702L14 15.5c-2.782-1.396-4.5-3-5.5-5.5l.77-4.13L7.815 2H4.064c-1.128 0-2.016.932-1.847 2.047c.42 2.783 1.66 7.83 5.283 11.453c3.805 3.805 9.286 5.456 12.302 6.113c1.165.253 2.198-.655 2.198-1.848v-3.584z"/></symbol>
<symbol id="i-chat-bubble-xmark" viewBox="0 0 24 24"><path fill="none" stroke="currentColor" stroke-linecap="round" stroke-linejoin="round" stroke-width="1.5" d="m9.5 14.5l2.493-2.5M14.5 9.5L11.993 12m0 0L9.5 9.5m2.493 2.5l2.507 2.5M12 22c5.523 0 10-4.477 10-10S17.523 2 12 2S2 6.477 2 12c0 1.821.487 3.53 1.338 5L2.5 21.5l4.5-.838A9.96 9.96 0 0 0 12 22"/></symbol>
<symbol id="i-user-square" viewBox="0 0 24 24"><g fill="none" stroke="currentColor" stroke-linecap="round" stroke-width="1.5"><path d="M7 18v-1a5 5 0 0 1 5-5v0a5 5 0 0 1 5 5v1"/><path stroke-linejoin="round" d="M12 12a3 3 0 1 0 0-6a3 3 0 0 0 0 6"/><path stroke-linejoin="round" d="M21 3.6v16.8a.6.6 0 0 1-.6.6H3.6a.6.6 0 0 1-.6-.6V3.6a.6.6 0 0 1 .6-.6h16.8a.6.6 0 0 1 .6.6"/></g></symbol>
<symbol id="i-eye-closed" viewBox="0 0 24 24"><path fill="none" stroke="currentColor" stroke-linecap="round" stroke-linejoin="round" stroke-width="1.5" d="m19.5 16l-2.475-3.396M12 17.5V14m-7.5 2l2.469-3.388M3 8c3.6 8 14.4 8 18 0"/></symbol>
<symbol id="i-dashboard-dots" viewBox="0 0 24 24"><g fill="none" stroke="currentColor" stroke-linecap="round" stroke-linejoin="round" stroke-width="1.5"><path d="m12 7.01l.01-.011M16 9.01l.01-.011M8 9.01l.01-.011M18 13.01l.01-.011M6 13.01l.01-.011M17 17.01l.01-.011M7 17.01l.01-.011M12 17l1-6m-4.5 9.001H4A9.96 9.96 0 0 1 2 14C2 8.477 6.477 4 12 4s10 4.477 10 10c0 2.252-.744 4.33-2 6.001L15.5 20"/><path d="M12 23a3 3 0 1 0 0-6a3 3 0 0 0 0 6"/></g></symbol>
<symbol id="i-wifi" viewBox="0 0 24 24"><path fill="none" stroke="currentColor" stroke-linecap="round" stroke-linejoin="round" stroke-width="1.5" d="m12 19.51l.01-.011M2 8c6-4.5 14-4.5 20 0M5 12c4-3 10-3 14 0M8.5 15.5c2.25-1.4 4.75-1.4 7 0"/></symbol>
<symbol id="i-skip-prev" viewBox="0 0 24 24"><path fill="none" stroke="currentColor" stroke-linecap="round" stroke-linejoin="round" stroke-width="1.5" d="M6 7v10M17.028 5.267a.6.6 0 0 1 .972.471v12.524a.6.6 0 0 1-.972.47l-7.931-6.261a.6.6 0 0 1 0-.942z"/></symbol>
<symbol id="i-sun-light" viewBox="0 0 24 24"><path fill="none" stroke="currentColor" stroke-linecap="round" stroke-linejoin="round" stroke-width="1.5" d="M12 18a6 6 0 1 0 0-12a6 6 0 0 0 0 12m10-6h1M12 2V1m0 22v-1m8-2l-1-1m1-15l-1 1M4 20l1-1M4 4l1 1m-4 7h1"/></symbol>
<symbol id="i-video-camera-off" viewBox="0 0 24 24"><path fill="none" stroke="currentColor" stroke-linecap="round" stroke-linejoin="round" stroke-width="1.5" d="M6.5 7H3.6a.6.6 0 0 0-.6.6v8.8a.6.6 0 0 0 .6.6h10.8a.6.6 0 0 0 .6-.6V15m-3.5-8h2.9a.6.6 0 0 1 .6.6v3.119a.6.6 0 0 0 .984.46l4.032-3.359a.6.6 0 0 1 .984.461V15.5M3 3l18 18"/></symbol>
<symbol id="i-page-left" viewBox="0 0 24 24"><g fill="none" stroke="currentColor" stroke-linecap="round" stroke-linejoin="round" stroke-width="1.5"><path d="M13 8.5L9.5 12l3.5 3.5"/><path d="M12 22c5.523 0 10-4.477 10-10S17.523 2 12 2S2 6.477 2 12s4.477 10 10 10"/></g></symbol>
<symbol id="i-text-arrows-up-down" viewBox="0 0 24 24"><path fill="none" stroke="currentColor" stroke-linecap="round" stroke-linejoin="round" stroke-width="1.5" d="M18 21V11m0 10l-2-2.5m2 2.5l2-2.5M18 11l-2 2m2-2l2 2M9 5v12m0 0H7m2 0h2m4-10V5H3v2"/></symbol>
<symbol id="i-video-camera" viewBox="0 0 24 24"><path fill="none" stroke="currentColor" stroke-linecap="round" stroke-linejoin="round" stroke-width="1.5" d="M15 12v4.4a.6.6 0 0 1-.6.6H3.6a.6.6 0 0 1-.6-.6V7.6a.6.6 0 0 1 .6-.6h10.8a.6.6 0 0 1 .6.6zm0 0l5.016-4.18a.6.6 0 0 1 .984.461v7.438a.6.6 0 0 1-.984.46z"/></symbol>
<symbol id="i-antenna" viewBox="0 0 24 24"><g fill="none" stroke="currentColor" stroke-linecap="round" stroke-linejoin="round" stroke-width="1.5"><path fill="currentColor" d="M12 5a1 1 0 1 0 0-2a1 1 0 0 0 0 2"/><path d="M16 1s1.5 1 1.5 3S16 7 16 7M8 1S6.5 2 6.5 4S8 7 8 7M7 23l1.111-4M17 23l-1.111-4M14.5 14L12 5l-2.5 9m5 0h-5m5 0l1.389 5M9.5 14l-1.389 5m0 0h7.778"/></g></symbol>
<symbol id="i-translate" viewBox="0 0 24 24"><path fill="none" stroke="currentColor" stroke-linecap="round" stroke-linejoin="round" stroke-width="1.5" d="M2 5h7m7 0h-2.5M9 5h4.5M9 5V3m4.5 2c-.82 2.735-2.539 5.32-4.5 7.593M4 17.5c1.585-1.359 3.376-3.026 5-4.907m0 0C8 11.5 6.4 9.3 6 8.5m3 4.093l3 2.907m1.5 5.5l1.143-3m6.857 3l-1.143-3m-5.714 0l2.857-7.5l2.857 7.5m-5.714 0h5.714"/></symbol>
<symbol id="i-skip-next" viewBox="0 0 24 24"><path fill="none" stroke="currentColor" stroke-linecap="round" stroke-linejoin="round" stroke-width="1.5" d="M18 7v10M6.972 5.267A.6.6 0 0 0 6 5.738v12.524a.6.6 0 0 0 .972.47l7.931-6.261a.6.6 0 0 0 0-.942z"/></symbol>
<symbol id="i-check-square-solid" viewBox="0 0 24 24"><path fill="currentColor" fill-rule="evenodd" d="M3.6 2.25A1.35 1.35 0 0 0 2.25 3.6v16.8c0 .746.604 1.35 1.35 1.35h16.8a1.35 1.35 0 0 0 1.35-1.35V3.6a1.35 1.35 0 0 0-1.35-1.35zm13.93 6.78a.75.75 0 0 0-1.06-1.06L10 14.44l-2.47-2.47a.75.75 0 0 0-1.06 1.06l3 3a.75.75 0 0 0 1.06 0z" clip-rule="evenodd"/></symbol>
<symbol id="i-book" viewBox="0 0 24 24"><g fill="none" stroke="currentColor" stroke-linecap="round" stroke-width="1.5"><path d="M4 19V5a2 2 0 0 1 2-2h13.4a.6.6 0 0 1 .6.6v13.114M6 17h14M6 21h14"/><path stroke-linejoin="round" d="M6 21a2 2 0 1 1 0-4"/><path d="M9 7h6"/></g></symbol>
<symbol id="i-cube" viewBox="0 0 24 24"><g fill="none" stroke="currentColor" stroke-linecap="round" stroke-linejoin="round" stroke-width="1.5"><path d="M21 7.353v9.294a.6.6 0 0 1-.309.525l-8.4 4.666a.6.6 0 0 1-.582 0l-8.4-4.666A.6.6 0 0 1 3 16.647V7.353a.6.6 0 0 1 .309-.524l8.4-4.667a.6.6 0 0 1 .582 0l8.4 4.667a.6.6 0 0 1 .309.524"/><path d="m3.528 7.294l8.18 4.544a.6.6 0 0 0 .583 0l8.209-4.56M12 21v-9"/></g></symbol>
<symbol id="i-bubble-warning" viewBox="0 0 24 24"><path fill="none" stroke="currentColor" stroke-linecap="round" stroke-linejoin="round" stroke-width="1.5" d="M18 2v3m0 4.01l.01-.011M13 2.05Q12.507 2 12 2C6.477 2 2 6.477 2 12c0 1.821.487 3.53 1.338 5L2.5 21.5l4.5-.838A9.96 9.96 0 0 0 12 22c5.523 0 10-4.477 10-10q0-.507-.05-1"/></symbol>
<symbol id="i-eye-off" viewBox="0 0 24 24"><g fill="none" stroke="currentColor" stroke-linecap="round" stroke-linejoin="round" stroke-width="1.5"><path d="m3 3l18 18M10.5 10.677a2 2 0 0 0 2.823 2.823"/><path d="M7.362 7.561C5.68 8.74 4.279 10.42 3 12c1.889 2.991 5.282 6 9 6c1.55 0 3.043-.523 4.395-1.35M12 6c4.008 0 6.701 3.158 9 6a15.66 15.66 0 0 1-1.078 1.5"/></g></symbol>
<symbol id="i-design-pencil" viewBox="0 0 24 24"><g fill="none" stroke="currentColor" stroke-linecap="round" stroke-linejoin="round" stroke-width="1.5"><path d="M12 2C6.477 2 2 6.477 2 12s4.477 10 10 10s10-4.477 10-10S17.523 2 12 2"/><path d="M8 21.168V14l4-7l4 7v7.168"/><path d="M8 14s1.127 1 2 1s2-1 2-1s1.127 1 2 1s2-1 2-1"/></g></symbol>
<symbol id="i-barcode" viewBox="0 0 24 24"><path fill="none" stroke="currentColor" stroke-linecap="round" stroke-linejoin="round" stroke-width="1.5" d="M5 19V5h1m6 14V5h1M9 5v14m7-14v14m3-14v14M6 5v14H5m8-14v14h-1"/></symbol>
<symbol id="i-arrow-up-left" viewBox="0 0 24 24"><path fill="none" stroke="currentColor" stroke-linecap="round" stroke-linejoin="round" stroke-width="1.5" d="M19 19L6 6m0 0v12.48M6 6h12.48"/></symbol>
<symbol id="i-nav-arrow-up" viewBox="0 0 24 24"><path fill="none" stroke="currentColor" stroke-linecap="round" stroke-linejoin="round" stroke-width="1.5" d="m6 15l6-6l6 6"/></symbol>
<symbol id="i-microscope" viewBox="0 0 24 24"><g fill="none" stroke="currentColor" stroke-linecap="round" stroke-linejoin="round" stroke-width="1.5"><path d="M19 22H7m-2 0h2m0 0v-3m12-3h-9m6-14h-4m0 5c-3 0-5 1-5 4v2m9-8.4v6.8a.6.6 0 0 1-.6.6h-2.8a.6.6 0 0 1-.6-.6V4.6a.6.6 0 0 1 .6-.6h2.8a.6.6 0 0 1 .6.6"/><path d="M7 19a3 3 0 1 1 0-6a3 3 0 0 1 0 6"/></g></symbol>
<symbol id="i-chat-bubble-question" viewBox="0 0 24 24"><g fill="none" stroke="currentColor" stroke-linecap="round" stroke-linejoin="round" stroke-width="1.5"><path d="M9 9c0-3.5 5.5-3.5 5.5 0c0 2.5-2.5 2-2.5 5m0 4.01l.01-.011"/><path d="M12 22c5.523 0 10-4.477 10-10S17.523 2 12 2S2 6.477 2 12c0 1.821.487 3.53 1.338 5L2.5 21.5l4.5-.838A9.96 9.96 0 0 0 12 22"/></g></symbol>
<symbol id="i-map" viewBox="0 0 24 24"><path fill="none" stroke="currentColor" stroke-linecap="round" stroke-linejoin="round" stroke-width="1.5" d="m9 19l-5.21 1.737a.6.6 0 0 1-.79-.57V5.433a.6.6 0 0 1 .41-.569L9 3m0 16l6 2m-6-2V3m6 18l5.59-1.863a.6.6 0 0 0 .41-.57V3.832a.6.6 0 0 0-.79-.569L15 5m0 16V5m0 0L9 3"/></symbol>
<symbol id="i-data-transfer-check" viewBox="0 0 24 24"><path fill="none" stroke="currentColor" stroke-linecap="round" stroke-linejoin="round" stroke-width="1.5" d="m14 19l3 3l5-5m-5-3V4m0 0l3 3m-3-3l-3 3M7 4v16m0 0l3-3m-3 3l-3-3"/></symbol>
<symbol id="i-page-search" viewBox="0 0 24 24"><g fill="none" stroke="currentColor" stroke-linecap="round" stroke-linejoin="round" stroke-width="1.5"><path d="M20 12V5.749a.6.6 0 0 0-.176-.425l-3.148-3.148A.6.6 0 0 0 16.252 2H4.6a.6.6 0 0 0-.6.6v18.8a.6.6 0 0 0 .6.6H11M8 10h8M8 6h4m-4 8h3m9.5 6.5L22 22"/><path d="M15 18a3 3 0 1 0 6 0a3 3 0 0 0-6 0m1-16v3.4a.6.6 0 0 0 .6.6H20"/></g></symbol>
<symbol id="i-sound-off" viewBox="0 0 24 24"><g fill="none" stroke="currentColor" stroke-width="1.5"><path stroke-linecap="round" stroke-linejoin="round" d="m18 14l2-2m2-2l-2 2m0 0l-2-2m2 2l2 2"/><path d="M2 13.857v-3.714a2 2 0 0 1 2-2h2.9a1 1 0 0 0 .55-.165l6-3.956a1 1 0 0 1 1.55.835v14.286a1 1 0 0 1-1.55.835l-6-3.956a1 1 0 0 0-.55-.165H4a2 2 0 0 1-2-2Z"/></g></symbol>
<symbol id="i-shield-alt" viewBox="0 0 24 24"><path fill="none" stroke="currentColor" stroke-linecap="round" stroke-linejoin="round" stroke-width="1.5" d="m3.571 8l-.44-3.084A1 1 0 0 1 3.904 3.8l7.662-1.703a2 2 0 0 1 .868 0L20.096 3.8a1 1 0 0 1 .773 1.117L20.43 8M3.57 8h16.86M3.57 8c.309 2.16.69 4.822 1 7m15.86-7c-.309 2.16-.69 4.822-1 7m0 0L19 18c-.07.495-.5 3.5-7 3.5S5.07 18.495 5 18l-.429-3m14.858 0H4.57"/></symbol>
<symbol id="i-arrow-up" viewBox="0 0 24 24"><path fill="none" stroke="currentColor" stroke-linecap="round" stroke-linejoin="round" stroke-width="1.5" d="M12 21V3m0 0l8.5 8.5M12 3l-8.5 8.5"/></symbol>
<symbol id="i-page-right" viewBox="0 0 24 24"><g fill="none" stroke="currentColor" stroke-linecap="round" stroke-linejoin="round" stroke-width="1.5"><path d="m11 8.5l3.5 3.5l-3.5 3.5"/><path d="M12 22c5.523 0 10-4.477 10-10S17.523 2 12 2S2 6.477 2 12s4.477 10 10 10"/></g></symbol>
<symbol id="i-chat-bubble-translate" viewBox="0 0 24 24"><g fill="none" stroke="currentColor" stroke-linecap="round" stroke-linejoin="round" stroke-width="1.5"><path d="M12 22c5.523 0 10-4.477 10-10S17.523 2 12 2S2 6.477 2 12c0 1.821.487 3.53 1.338 5L2.5 21.5l4.5-.838A9.96 9.96 0 0 0 12 22"/><path d="M7 8.517h5m5 0h-1.786m-3.214 0h3.214m-3.214 0V7m3.214 1.517c-.586 2.075-1.813 4.037-3.214 5.76M8.429 18C9.56 16.97 10.84 15.705 12 14.277m0 0c-.714-.829-1.714-2.17-2-2.777m2 2.777l2.143 2.206"/></g></symbol>
<symbol id="i-data-transfer-down" viewBox="0 0 24 24"><path fill="none" stroke="currentColor" stroke-linecap="round" stroke-linejoin="round" stroke-width="1.5" d="M17 20v-1m0-4v-1M7 4v16m0 0l-3-3m3 3l3-3m7-7V4m0 0l-3 3m3-3l3 3"/></symbol>
<symbol id="i-headset-help" viewBox="0 0 24 24"><path fill="none" stroke="currentColor" stroke-width="1.5" d="m4 11.5l-.485.121A2 2 0 0 0 2 13.561v1.877a2 2 0 0 0 1.515 1.94l1.74.435A.6.6 0 0 0 6 17.231v-5.463a.6.6 0 0 0-.746-.582zm0 0V11a8 8 0 1 1 16 0v.5m0 0l.485.121A2 2 0 0 1 22 13.561v1.877a2 2 0 0 1-1.515 1.94L20 17.5m0-6l-1.255-.314a.6.6 0 0 0-.745.582v5.463a.6.6 0 0 0 .745.582L20 17.5m-5 3h3a2 2 0 0 0 2-2v-1m-5 3a1.5 1.5 0 0 0-1.5-1.5h-3a1.5 1.5 0 0 0 0 3h3a1.5 1.5 0 0 0 1.5-1.5Z"/></symbol>
<symbol id="i-page" viewBox="0 0 24 24"><g fill="none" stroke="currentColor" stroke-linecap="round" stroke-linejoin="round" stroke-width="1.5"><path d="M4 21.4V2.6a.6.6 0 0 1 .6-.6h11.652a.6.6 0 0 1 .424.176l3.148 3.148A.6.6 0 0 1 20 5.75V21.4a.6.6 0 0 1-.6.6H4.6a.6.6 0 0 1-.6-.6M8 10h8m-8 8h8m-8-4h4"/><path d="M16 2v3.4a.6.6 0 0 0 .6.6H20"/></g></symbol>
<symbol id="i-folder" viewBox="0 0 24 24"><path fill="none" stroke="currentColor" stroke-linecap="round" stroke-linejoin="round" stroke-width="1.5" d="M2 11V4.6a.6.6 0 0 1 .6-.6h6.178a.6.6 0 0 1 .39.144l3.164 2.712a.6.6 0 0 0 .39.144H21.4a.6.6 0 0 1 .6.6V11M2 11v8.4a.6.6 0 0 0 .6.6h18.8a.6.6 0 0 0 .6-.6V11M2 11h20"/></symbol>
<symbol id="i-page-up" viewBox="0 0 24 24"><g fill="none" stroke="currentColor" stroke-linecap="round" stroke-linejoin="round" stroke-width="1.5"><path d="M8.5 13L12 9.5l3.5 3.5"/><path d="M12 22c5.523 0 10-4.477 10-10S17.523 2 12 2S2 6.477 2 12s4.477 10 10 10"/></g></symbol>
<symbol id="i-pin-slash" viewBox="0 0 24 24"><path fill="none" stroke="currentColor" stroke-linecap="round" stroke-linejoin="round" stroke-width="1.5" d="M9.5 14.5L3 21M7.676 7.89l-.979-.102L5 9.485l9.193 9.193l1.697-1.697l-.102-.981m-4.303-9l3.672-4.329l5.85 5.85l-4.308 3.654M3 3l18 18"/></symbol>
<symbol id="i-mail-open" viewBox="0 0 24 24"><g fill="none" stroke="currentColor" stroke-width="1.5"><path stroke-linecap="round" stroke-linejoin="round" d="m7 12l5 3.5l5-3.5"/><path d="M2 20V9.132a2 2 0 0 1 .971-1.715l8-4.8a2 2 0 0 1 2.058 0l8 4.8A2 2 0 0 1 22 9.132V20a2 2 0 0 1-2 2H4a2 2 0 0 1-2-2Z"/></g></symbol>
<symbol id="i-headset" viewBox="0 0 24 24"><path fill="none" stroke="currentColor" stroke-linecap="round" stroke-linejoin="round" stroke-width="1.5" d="m4 13.5l-.485.121A2 2 0 0 0 2 15.561v1.877a2 2 0 0 0 1.515 1.94l1.74.436A.6.6 0 0 0 6 19.23v-5.463a.6.6 0 0 0-.746-.582zm0 0V13c0-4.97 3.582-9 8-9s8 4.03 8 9v.5m0 0l.485.121A2 2 0 0 1 22 15.561v1.877a2 2 0 0 1-1.515 1.94l-1.74.436A.6.6 0 0 1 18 19.23v-5.463a.6.6 0 0 1 .745-.582z"/></symbol>
<symbol id="i-edit" viewBox="0 0 24 24"><path fill="none" stroke="currentColor" stroke-linecap="round" stroke-linejoin="round" stroke-width="1.5" d="M3 21h18M12.222 5.828L15.05 3L20 7.95l-2.828 2.828m-4.95-4.95l-5.607 5.607a1 1 0 0 0-.293.707v4.536h4.536a1 1 0 0 0 .707-.293l5.607-5.607m-4.95-4.95l4.95 4.95"/></symbol>
<symbol id="i-long-arrow-left-up" viewBox="0 0 24 24"><g fill="none" stroke="currentColor" stroke-linecap="round" stroke-linejoin="round" stroke-width="1.5"><path d="M4.5 10.5L8 7l3.5 3.5"/><path d="M8 7v6a4 4 0 0 0 4 4h7"/></g></symbol>
<symbol id="i-gps" viewBox="0 0 24 24"><path fill="none" stroke="currentColor" stroke-linecap="round" stroke-linejoin="round" stroke-width="1.5" d="M22 8.5h-2.25A1.75 1.75 0 0 0 18 10.25v0c0 .966.784 1.75 1.75 1.75h1.5c.966 0 1.75.784 1.75 1.75v0a1.75 1.75 0 0 1-1.75 1.75H18m-7.5 0v-2.8m0 0h2.857c.714 0 2.143 0 2.143-2.1s-1.429-2.1-2.143-2.1H10.5zm-4-3.573a3.5 3.5 0 1 0-2 6.373C6.433 15.5 8 14 8 12H5"/></symbol>
<symbol id="i-nav-arrow-down" viewBox="0 0 24 24"><path fill="none" stroke="currentColor" stroke-linecap="round" stroke-linejoin="round" stroke-width="1.5" d="m6 9l6 6l6-6"/></symbol>
<symbol id="i-dashboard-speed" viewBox="0 0 24 24"><g fill="none" stroke="currentColor" stroke-linecap="round" stroke-linejoin="round" stroke-width="1.5"><path d="M12 4v4M4 8l2.5 2.5m11 0L20 8M3 17h3m6 0l1-6m5 6h3M8.5 20.001H4A9.96 9.96 0 0 1 2 14C2 8.477 6.477 4 12 4s10 4.477 10 10c0 2.252-.744 4.33-2 6.001L15.5 20"/><path d="M12 23a3 3 0 1 0 0-6a3 3 0 0 0 0 6"/></g></symbol>
<symbol id="i-plus-square" viewBox="0 0 24 24"><path fill="none" stroke="currentColor" stroke-linecap="round" stroke-linejoin="round" stroke-width="1.5" d="M9 12h3m3 0h-3m0 0V9m0 3v3m9-11.4v16.8a.6.6 0 0 1-.6.6H3.6a.6.6 0 0 1-.6-.6V3.6a.6.6 0 0 1 .6-.6h16.8a.6.6 0 0 1 .6.6"/></symbol>
<symbol id="i-database-check" viewBox="0 0 24 24"><g fill="none" stroke="currentColor" stroke-linecap="round" stroke-linejoin="round" stroke-width="1.5"><path d="m14 19l3 3l5-5M4 6v6s0 3 7 3s7-3 7-3V6"/><path d="M11 3c7 0 7 3 7 3s0 3-7 3s-7-3-7-3s0-3 7-3m0 18c-7 0-7-3-7-3v-6"/></g></symbol>
<symbol id="i-activity" viewBox="0 0 24 24"><path fill="none" stroke="currentColor" stroke-linecap="round" stroke-linejoin="round" stroke-width="1.5" d="M3 12h3l3-9l6 18l3-9h3"/></symbol>
<symbol id="i-calendar-xmark" viewBox="0 0 24 24"><path fill="none" stroke="currentColor" stroke-linecap="round" stroke-linejoin="round" stroke-width="1.5" d="M15 21H5a2 2 0 0 1-2-2v-9h18v5M15 4V2m0 2v2m0-2h-4.5M3 10V6a2 2 0 0 1 2-2h2m0-2v4m14 4V6a2 2 0 0 0-2-2h-.5M18 22.243l2.121-2.122m0 0L22.243 18m-2.122 2.121L18 18m2.121 2.121l2.122 2.122"/></symbol>
<symbol id="i-map-pin-plus" viewBox="0 0 24 24"><g fill="none" stroke="currentColor" stroke-width="1.5"><path d="M16 9.2C16 13.177 9 20 9 20S2 13.177 2 9.2C2 5.224 5.134 2 9 2s7 3.224 7 7.2Z"/><path fill="currentColor" stroke-linecap="round" stroke-linejoin="round" d="M9 10a1 1 0 1 0 0-2a1 1 0 0 0 0 2"/><path stroke-linecap="round" stroke-linejoin="round" d="M16 19h3m3 0h-3m0 0v-3m0 3v3"/></g></symbol>
<symbol id="i-arrow-right" viewBox="0 0 24 24"><path fill="none" stroke="currentColor" stroke-linecap="round" stroke-linejoin="round" stroke-width="1.5" d="M3 12h18m0 0l-8.5-8.5M21 12l-8.5 8.5"/></symbol>
<symbol id="i-microphone-mute" viewBox="0 0 24 24"><g fill="none" stroke="currentColor" stroke-linecap="round" stroke-linejoin="round" stroke-width="1.5"><path d="m3 3l18 18M9 9a5 5 0 0 0 5 5v0m1-3.5V5a3 3 0 0 0-3-3v0a3 3 0 0 0-3 3v.5"/><path d="M5 10v1a7 7 0 0 0 7 7v0a7 7 0 0 0 7-7v-1m-7 8v4m0 0H9m3 0h3"/></g></symbol>
<symbol id="i-calendar-rotate" viewBox="0 0 24 24"><g fill="none" stroke="currentColor" stroke-linecap="round" stroke-linejoin="round" stroke-width="1.5"><path d="M10 21H5a2 2 0 0 1-2-2v-9h18m-6-6V2m0 2v2m0-2h-4.5M3 10V6a2 2 0 0 1 2-2h2m0-2v4m14 4V6a2 2 0 0 0-2-2h-.5"/><path d="M21.667 16.667C21.048 15.097 19.635 14 17.99 14c-1.759 0-3.253 1.255-3.794 3"/><path d="M19.995 16.772H21.4a.6.6 0 0 0 .6-.6V14.55m-7.666 4.783C14.953 20.903 16.366 22 18.01 22c1.759 0 3.253-1.255 3.794-3"/><path d="M16.005 19.228H14.6a.6.6 0 0 0-.6.6v1.622"/></g></symbol>
<symbol id="i-bubble-xmark" viewBox="0 0 24 24"><path fill="none" stroke="currentColor" stroke-linecap="round" stroke-linejoin="round" stroke-width="1.5" d="M13 2.05Q12.507 2 12 2C6.477 2 2 6.477 2 12c0 1.821.487 3.53 1.338 5L2.5 21.5l4.5-.838A9.96 9.96 0 0 0 12 22c5.523 0 10-4.477 10-10q0-.507-.05-1m-4.829-3.636l2.121-2.121m0 0l2.122-2.122m-2.122 2.122l-2.12-2.122m2.12 2.122l2.122 2.121"/></symbol>
<symbol id="i-play" viewBox="0 0 24 24"><path fill="none" stroke="currentColor" stroke-linecap="round" stroke-linejoin="round" stroke-width="1.5" d="M6.906 4.537A.6.6 0 0 0 6 5.053v13.894a.6.6 0 0 0 .906.516l11.723-6.947a.6.6 0 0 0 0-1.032z"/></symbol>
<symbol id="i-send" viewBox="0 0 24 24"><path fill="none" stroke="currentColor" stroke-linecap="round" stroke-linejoin="round" stroke-width="1.5" d="M22 12L3 20l3.563-8L3 4zM6.5 12H22"/></symbol>
<symbol id="i-hashtag" viewBox="0 0 24 24"><path fill="none" stroke="currentColor" stroke-linecap="round" stroke-width="1.5" d="M10 3L6 21m14.5-5h-18M22 7H4m14-4l-4 18"/></symbol>
<symbol id="i-page-plus" viewBox="0 0 24 24"><g fill="none" stroke="currentColor" stroke-linecap="round" stroke-linejoin="round" stroke-width="1.5"><path d="M4 12V2.6a.6.6 0 0 1 .6-.6h11.652a.6.6 0 0 1 .424.176l3.148 3.148A.6.6 0 0 1 20 5.75V21.4a.6.6 0 0 1-.6.6H11"/><path d="M16 2v3.4a.6.6 0 0 0 .6.6H20M1.992 19h3m3 0h-3m0 0v-3m0 3v3"/></g></symbol>
<symbol id="i-data-transfer-up" viewBox="0 0 24 24"><path fill="none" stroke="currentColor" stroke-linecap="round" stroke-linejoin="round" stroke-width="1.5" d="M7 4v1m0 4v1m10 10V4m0 0l3 3m-3-3l-3 3m-7 7v6m0 0l3-3m-3 3l-3-3"/></symbol>
<symbol id="i-dashboard" viewBox="0 0 24 24"><g fill="none" stroke="currentColor" stroke-width="1.5"><path d="M15 15.8c0-1.767-3-4.8-3-4.8s-3 3.033-3 4.8s1.343 3.2 3 3.2s3-1.433 3-3.2Z"/><path stroke-linecap="round" stroke-linejoin="round" d="M12 4v4m-8.5-.5l3 3m11 0l3-3M2 17h4m12 0h4"/></g></symbol>
<symbol id="i-battery-empty" viewBox="0 0 24 24"><g fill="none" stroke="currentColor" stroke-width="1.5"><path stroke-linecap="round" stroke-linejoin="round" d="M23 10v4"/><path d="M1 16V8a2 2 0 0 1 2-2h15a2 2 0 0 1 2 2v8a2 2 0 0 1-2 2H3a2 2 0 0 1-2-2Z"/></g></symbol>
<symbol id="i-calendar-plus" viewBox="0 0 24 24"><path fill="none" stroke="currentColor" stroke-linecap="round" stroke-linejoin="round" stroke-width="1.5" d="M13 21H5a2 2 0 0 1-2-2v-9h18v3m-6-9V2m0 2v2m0-2h-4.5M3 10V6a2 2 0 0 1 2-2h2m0-2v4m14 4V6a2 2 0 0 0-2-2h-.5m-2.508 15h3M22 19h-3.008m0 0v-3m0 3v3"/></symbol>
<symbol id="i-time-zone" viewBox="0 0 24 24"><g fill="none" stroke="currentColor" stroke-linecap="round" stroke-linejoin="round" stroke-width="1.5"><path d="M22 12c0-5.523-4.477-10-10-10S2 6.477 2 12s4.477 10 10 10"/><path d="M13 2.05S16 6 16 12m-5 9.95S8 18 8 12s3-9.95 3-9.95M2.63 15.5H12m-9.37-7h18.74m-2.37 9V19h1.5"/><path d="M19 23a4 4 0 1 0 0-8a4 4 0 0 0 0 8"/></g></symbol>
<symbol id="i-puzzle" viewBox="0 0 24 24"><path fill="none" stroke="currentColor" stroke-linecap="round" stroke-linejoin="round" stroke-width="1.5" d="M4 14v4.4a.6.6 0 0 0 .6.6H10m9-5v4.4a.6.6 0 0 1-.6.6H14m0-14h4.4a.6.6 0 0 1 .6.6V10M4 10V5.6a.6.6 0 0 1 .6-.6H10m4 14v1a2 2 0 1 1-4 0v-1m-6-9h1a2 2 0 1 1 0 4H4m15-4h1a2 2 0 1 1 0 4h-1m-5-9V4a2 2 0 1 0-4 0v1"/></symbol>
<symbol id="i-arrow-down-tag" viewBox="0 0 24 24"><g fill="none" stroke="currentColor" stroke-linecap="round" stroke-linejoin="round" stroke-width="1.5"><path d="M6 5h12a4 4 0 0 1 4 4v6a4 4 0 0 1-4 4H6a4 4 0 0 1-4-4V9a4 4 0 0 1 4-4"/><path d="m14.5 10.75l-2.5 2.5l-2.5-2.5"/></g></symbol>
<symbol id="i-xmark-square" viewBox="0 0 24 24"><path fill="none" stroke="currentColor" stroke-linecap="round" stroke-linejoin="round" stroke-width="1.5" d="M9.879 14.121L12 12m2.121-2.121L12 12m0 0L9.879 9.879M12 12l2.121 2.121M21 3.6v16.8a.6.6 0 0 1-.6.6H3.6a.6.6 0 0 1-.6-.6V3.6a.6.6 0 0 1 .6-.6h16.8a.6.6 0 0 1 .6.6"/></symbol>
<symbol id="i-arrow-right-tag" viewBox="0 0 24 24"><g fill="none" stroke="currentColor" stroke-width="1.5"><path stroke-linecap="round" stroke-linejoin="round" d="M6.75 12h10m0 0L14 14.75M16.75 12L14 9.25"/><path d="M2 15V9a4 4 0 0 1 4-4h12a4 4 0 0 1 4 4v6a4 4 0 0 1-4 4H6a4 4 0 0 1-4-4Z"/></g></symbol>
<symbol id="i-calendar-check" viewBox="0 0 24 24"><path fill="none" stroke="currentColor" stroke-linecap="round" stroke-linejoin="round" stroke-width="1.5" d="M13 21H5a2 2 0 0 1-2-2v-9h18v5M15 4V2m0 2v2m0-2h-4.5M3 10V6a2 2 0 0 1 2-2h2m0-2v4m14 4V6a2 2 0 0 0-2-2h-.5M16 20l2 2l4-4"/></symbol>
<symbol id="i-chat-bubble-warning" viewBox="0 0 24 24"><path fill="none" stroke="currentColor" stroke-linecap="round" stroke-linejoin="round" stroke-width="1.5" d="M12 8v4m0 4.01l.01-.011M12 22c5.523 0 10-4.477 10-10S17.523 2 12 2S2 6.477 2 12c0 1.821.487 3.53 1.338 5L2.5 21.5l4.5-.838A9.96 9.96 0 0 0 12 22"/></symbol>
<symbol id="i-page-edit" viewBox="0 0 24 24"><g fill="none" stroke="currentColor" stroke-linecap="round" stroke-linejoin="round" stroke-width="1.5"><path d="M20 12V5.749a.6.6 0 0 0-.176-.425l-3.148-3.148A.6.6 0 0 0 16.252 2H4.6a.6.6 0 0 0-.6.6v18.8a.6.6 0 0 0 .6.6H11M8 10h8M8 6h4m-4 8h3m6.954 2.94l1-1a1.12 1.12 0 0 1 1.586 0v0a1.12 1.12 0 0 1 0 1.585l-1 1m-1.586-1.586l-2.991 2.991a1 1 0 0 0-.28.553l-.244 1.557l1.557-.243a1 1 0 0 0 .553-.28l2.99-2.992m-1.585-1.586l1.586 1.586"/><path d="M16 2v3.4a.6.6 0 0 0 .6.6H20"/></g></symbol>
<symbol id="i-circle" viewBox="0 0 24 24"><path fill="none" stroke="currentColor" stroke-linecap="round" stroke-linejoin="round" stroke-width="1.5" d="M12 22c5.523 0 10-4.477 10-10S17.523 2 12 2S2 6.477 2 12s4.477 10 10 10"/></symbol>
<symbol id="i-window-xmark" viewBox="0 0 24 24"><g fill="none" stroke="currentColor" stroke-linecap="round" stroke-width="1.5"><path d="M15 21H4a2 2 0 0 1-2-2V5a2 2 0 0 1 2-2h16a2 2 0 0 1 2 2v10"/><path stroke-linejoin="round" d="M2 7h20M5 5.01l.01-.011M8 5.01l.01-.011M11 5.01l.01-.011M18 22.243l2.121-2.122m0 0L22.243 18m-2.122 2.121L18 18m2.121 2.121l2.122 2.122"/></g></symbol>
<symbol id="i-arrow-up-tag" viewBox="0 0 24 24"><g fill="none" stroke="currentColor" stroke-linecap="round" stroke-linejoin="round" stroke-width="1.5"><path d="m14.5 13.25l-2.5-2.5l-2.5 2.5"/><path d="M6 5h12a4 4 0 0 1 4 4v6a4 4 0 0 1-4 4H6a4 4 0 0 1-4-4V9a4 4 0 0 1 4-4"/></g></symbol>
<symbol id="i-headset-bolt" viewBox="0 0 24 24"><g fill="none" stroke="currentColor" stroke-linecap="round" stroke-linejoin="round" stroke-width="1.5"><path d="M12.5 13L10 17h4l-2.5 4"/><path d="m4 13.5l-.485.121A2 2 0 0 0 2 15.561v1.877a2 2 0 0 0 1.515 1.94l1.74.436A.6.6 0 0 0 6 19.23v-5.463a.6.6 0 0 0-.746-.582zm0 0V13c0-4.97 3.582-9 8-9s8 4.03 8 9v.5m0 0l.485.121A2 2 0 0 1 22 15.561v1.877a2 2 0 0 1-1.515 1.94l-1.74.436A.6.6 0 0 1 18 19.23v-5.463a.6.6 0 0 1 .745-.582z"/></g></symbol>
<symbol id="i-plus-square-dashed" viewBox="0 0 24 24"><path fill="none" stroke="currentColor" stroke-linecap="round" stroke-linejoin="round" stroke-width="1.5" d="M8 12h4m4 0h-4m0 0V8m0 4v4M7 4H4v3m0 4v2m7-9h2m-2 16h2m7-9v2m-3-9h3v3M7 20H4v-3m13 3h3v-3"/></symbol>
<symbol id="i-share-android" viewBox="0 0 24 24"><g fill="none" stroke="currentColor" stroke-width="1.5"><path stroke-linecap="round" stroke-linejoin="round" d="M18 22a3 3 0 1 0 0-6a3 3 0 0 0 0 6m0-14a3 3 0 1 0 0-6a3 3 0 0 0 0 6M6 15a3 3 0 1 0 0-6a3 3 0 0 0 0 6"/><path d="m15.5 6.5l-7 4m0 3l7 4"/></g></symbol>
<symbol id="i-calendar-arrow-down" viewBox="0 0 24 24"><path fill="none" stroke="currentColor" stroke-linecap="round" stroke-linejoin="round" stroke-width="1.5" d="M13 21H5a2 2 0 0 1-2-2v-9h18v3m-6-9V2m0 2v2m0-2h-4.5M3 10V6a2 2 0 0 1 2-2h2m0-2v4m14 4V6a2 2 0 0 0-2-2h-.5m.5 12v6m0 0l3-3m-3 3l-3-3"/></symbol>
<symbol id="i-check-square" viewBox="0 0 24 24"><g fill="none" stroke="currentColor" stroke-width="1.5"><path d="M3 20.4V3.6a.6.6 0 0 1 .6-.6h16.8a.6.6 0 0 1 .6.6v16.8a.6.6 0 0 1-.6.6H3.6a.6.6 0 0 1-.6-.6Z"/><path stroke-linecap="round" stroke-linejoin="round" d="m7 12.5l3 3l7-7"/></g></symbol>
<symbol id="i-test-tube" viewBox="0 0 24 24"><g fill="none" stroke="currentColor" stroke-linecap="round" stroke-linejoin="round" stroke-width="1.5"><path d="M6.141 19.995c2.458 1.72 4.281-.012 5.318-1.492l7.3-10.426l1.967-1.065l-6.554-4.588l-8.447 12.064c-1.037 1.48-2.041 3.786.416 5.507"/><path d="M16.091 11.02c-2.876-.853-4.403.781-7.28-.071"/></g></symbol>
<symbol id="i-calendar-arrow-up" viewBox="0 0 24 24"><path fill="none" stroke="currentColor" stroke-linecap="round" stroke-linejoin="round" stroke-width="1.5" d="M13 21H5a2 2 0 0 1-2-2v-9h18v3m-6-9V2m0 2v2m0-2h-4.5M3 10V6a2 2 0 0 1 2-2h2m0-2v4m14 4V6a2 2 0 0 0-2-2h-.5m.5 18v-6m0 0l3 3m-3-3l-3 3"/></symbol>
<symbol id="i-battery-indicator" viewBox="0 0 24 24"><path fill="none" stroke="currentColor" stroke-linecap="round" stroke-linejoin="round" stroke-width="1.5" d="M14 13h4M6 13h2m2 0H8m0 0v-2m0 2v2M6 7H2.6a.6.6 0 0 0-.6.6v10.8a.6.6 0 0 0 .6.6h18.8a.6.6 0 0 0 .6-.6V7.6a.6.6 0 0 0-.6-.6H18M6 7V5h2v2M6 7h2m0 0h8m0 0V5h2v2m-2 0h2"/></symbol>
<symbol id="i-chat-bubble-empty" viewBox="0 0 24 24"><path fill="none" stroke="currentColor" stroke-linecap="round" stroke-linejoin="round" stroke-width="1.5" d="M12 22c5.523 0 10-4.477 10-10S17.523 2 12 2S2 6.477 2 12c0 1.821.487 3.53 1.338 5L2.5 21.5l4.5-.838A9.96 9.96 0 0 0 12 22"/></symbol>
<symbol id="i-long-arrow-up-left" viewBox="0 0 24 24"><g fill="none" stroke="currentColor" stroke-linecap="round" stroke-linejoin="round" stroke-width="1.5"><path d="m10.25 4.75l-3.5 3.5l3.5 3.5"/><path d="M6.75 8.25h6a4 4 0 0 1 4 4v7"/></g></symbol>
<symbol id="i-minus" viewBox="0 0 24 24"><path fill="none" stroke="currentColor" stroke-linecap="round" stroke-linejoin="round" stroke-width="1.5" d="M6 12h12"/></symbol>
<symbol id="i-phone-outcome" viewBox="0 0 24 24"><path fill="none" stroke="currentColor" stroke-linecap="round" stroke-linejoin="round" stroke-width="1.5" d="M16 5h6m0 0l-3-3m3 3l-3 3m-.882 6.702L14 15.5c-2.782-1.396-4.5-3-5.5-5.5l.77-4.13L7.815 2H4.064c-1.128 0-2.016.932-1.847 2.047c.42 2.783 1.66 7.83 5.283 11.453c3.805 3.805 9.286 5.456 12.302 6.113c1.165.253 2.198-.655 2.198-1.848v-3.584z"/></symbol>
<symbol id="i-arrow-left" viewBox="0 0 24 24"><path fill="none" stroke="currentColor" stroke-linecap="round" stroke-linejoin="round" stroke-width="1.5" d="M21 12H3m0 0l8.5-8.5M3 12l8.5 8.5"/></symbol>
<symbol id="i-divide" viewBox="0 0 24 24"><g fill="none" stroke="currentColor" stroke-linecap="round" stroke-linejoin="round" stroke-width="1.5"><path d="M12 21v-9a5 5 0 0 0-5-5H3m9 14v-9a5 5 0 0 1 5-5h4"/><path d="M7 3L3 7l4 4m10-8l4 4l-4 4"/></g></symbol>
<symbol id="i-rewind" viewBox="0 0 24 24"><path fill="none" stroke="currentColor" stroke-linecap="round" stroke-linejoin="round" stroke-width="1.5" d="M21.044 5.704a.6.6 0 0 1 .956.483v11.626a.6.6 0 0 1-.956.483l-7.889-5.813a.6.6 0 0 1 0-.966zm-11 0a.6.6 0 0 1 .956.483v11.626a.6.6 0 0 1-.956.483l-7.888-5.813a.6.6 0 0 1 0-.966z"/></symbol>
<symbol id="i-phone-minus" viewBox="0 0 24 24"><path fill="none" stroke="currentColor" stroke-linecap="round" stroke-linejoin="round" stroke-width="1.5" d="M16.242 5.243h6m-4.124 9.459L14 15.5c-2.782-1.396-4.5-3-5.5-5.5l.77-4.13L7.815 2H4.064c-1.128 0-2.016.932-1.847 2.047c.42 2.783 1.66 7.83 5.283 11.453c3.805 3.805 9.286 5.456 12.302 6.113c1.165.253 2.198-.655 2.198-1.848v-3.584z"/></symbol>
<symbol id="i-fast-arrow-left-square" viewBox="0 0 24 24"><g fill="none" stroke="currentColor" stroke-width="1.5"><path d="M3 20.4V3.6a.6.6 0 0 1 .6-.6h16.8a.6.6 0 0 1 .6.6v16.8a.6.6 0 0 1-.6.6H3.6a.6.6 0 0 1-.6-.6Z"/><path stroke-linecap="round" stroke-linejoin="round" d="M16.5 8.5L13 12l3.5 3.5m-6-7L7 12l3.5 3.5"/></g></symbol>
<symbol id="i-text" viewBox="0 0 24 24"><path fill="none" stroke="currentColor" stroke-linecap="round" stroke-linejoin="round" stroke-width="1.5" d="M19 7V5H5v2m7-2v14m0 0h-2m2 0h2"/></symbol>
<symbol id="i-headset-warning" viewBox="0 0 24 24"><path fill="none" stroke="currentColor" stroke-linecap="round" stroke-linejoin="round" stroke-width="1.5" d="M12 13v5m0 3.01l.01-.011M4 13.5l-.485.121A2 2 0 0 0 2 15.561v1.877a2 2 0 0 0 1.515 1.94l1.74.436A.6.6 0 0 0 6 19.23v-5.463a.6.6 0 0 0-.746-.582zm0 0V13c0-4.97 3.582-9 8-9s8 4.03 8 9v.5m0 0l.485.121A2 2 0 0 1 22 15.561v1.877a2 2 0 0 1-1.515 1.94l-1.74.436A.6.6 0 0 1 18 19.23v-5.463a.6.6 0 0 1 .745-.582z"/></symbol>
<symbol id="i-phone-paused" viewBox="0 0 24 24"><path fill="none" stroke="currentColor" stroke-linecap="round" stroke-linejoin="round" stroke-width="1.5" d="M18 2v5m4-5v5m-3.882 7.702L14 15.5c-2.782-1.396-4.5-3-5.5-5.5l.77-4.13L7.815 2H4.064c-1.128 0-2.016.932-1.847 2.047c.42 2.783 1.66 7.83 5.283 11.453c3.805 3.805 9.286 5.456 12.302 6.113c1.165.253 2.198-.655 2.198-1.848v-3.584z"/></symbol>
<symbol id="i-long-arrow-left-down" viewBox="0 0 24 24"><g fill="none" stroke="currentColor" stroke-linecap="round" stroke-linejoin="round" stroke-width="1.5"><path d="M4.5 13.5L8 17l3.5-3.5"/><path d="M8 17v-6a4 4 0 0 1 4-4h7"/></g></symbol>
<symbol id="i-arrow-down-right" viewBox="0 0 24 24"><path fill="none" stroke="currentColor" stroke-linecap="round" stroke-linejoin="round" stroke-width="1.5" d="m6 6l13 13m0 0V6.52M19 19H6.52"/></symbol>
<symbol id="i-arrow-left-circle" viewBox="0 0 24 24"><path fill="none" stroke="currentColor" stroke-linecap="round" stroke-linejoin="round" stroke-width="1.5" d="M16 12H8m0 0l3.5 3.5M8 12l3.5-3.5M12 22c5.523 0 10-4.477 10-10S17.523 2 12 2S2 6.477 2 12s4.477 10 10 10"/></symbol>
<symbol id="i-mail-out" viewBox="0 0 24 24"><g fill="none" stroke="currentColor" stroke-linecap="round" stroke-width="1.5"><path stroke-linejoin="round" d="m5 9l4.5 3L14 9"/><path d="M17 19H3a2 2 0 0 1-2-2V7a2 2 0 0 1 2-2h13a2 2 0 0 1 2 2v2"/><path stroke-linejoin="round" d="M17 14h6m0 0l-3-3m3 3l-3 3"/></g></symbol>
<symbol id="i-page-down" viewBox="0 0 24 24"><g fill="none" stroke="currentColor" stroke-linecap="round" stroke-linejoin="round" stroke-width="1.5"><path d="m8.5 11l3.5 3.5l3.5-3.5"/><path d="M12 22c5.523 0 10-4.477 10-10S17.523 2 12 2S2 6.477 2 12s4.477 10 10 10"/></g></symbol>
<symbol id="i-calendar-minus" viewBox="0 0 24 24"><path fill="none" stroke="currentColor" stroke-linecap="round" stroke-linejoin="round" stroke-width="1.5" d="M13 21H5a2 2 0 0 1-2-2v-9h18v3m-6-9V2m0 2v2m0-2h-4.5M3 10V6a2 2 0 0 1 2-2h2m0-2v4m14 4V6a2 2 0 0 0-2-2h-.5m-2.508 15H22"/></symbol>
<symbol id="i-database" viewBox="0 0 24 24"><g fill="none" stroke="currentColor" stroke-width="1.5"><path d="M5 12v6s0 3 7 3s7-3 7-3v-6"/><path d="M5 6v6s0 3 7 3s7-3 7-3V6"/><path d="M12 3c7 0 7 3 7 3s0 3-7 3s-7-3-7-3s0-3 7-3Z"/></g></symbol>
<symbol id="i-mail-in" viewBox="0 0 24 24"><g fill="none" stroke="currentColor" stroke-linecap="round" stroke-width="1.5"><path stroke-linejoin="round" d="m5 9l4.5 3L14 9"/><path d="M17 19H3a2 2 0 0 1-2-2V7a2 2 0 0 1 2-2h13a2 2 0 0 1 2 2v2"/><path stroke-linejoin="round" d="M23 14h-6m0 0l3-3m-3 3l3 3"/></g></symbol>
<symbol id="i-wifi-off" viewBox="0 0 24 24"><path fill="none" stroke="currentColor" stroke-linecap="round" stroke-linejoin="round" stroke-width="1.5" d="m12 19.51l.01-.011M3 3l18 18M2 8a17 17 0 0 1 3.757-2.14M22 8c-3.572-2.68-7.854-3.763-12-3.252M5 12c1.333-1 2.889-1.667 4.518-2M19 12a11.3 11.3 0 0 0-4.282-1.95M8.5 15.5c2.25-1.4 4.75-1.4 7 0"/></symbol>
<symbol id="i-microphone-warning" viewBox="0 0 24 24"><g fill="none" stroke="currentColor" stroke-width="1.5"><path stroke-linecap="round" stroke-linejoin="round" d="M21 14v4m0 4.01l.01-.011"/><rect width="6" height="12" x="7" y="2" rx="3"/><path stroke-linecap="round" stroke-linejoin="round" d="M3 10v1a7 7 0 0 0 7 7v0a7 7 0 0 0 7-7v-1m-7 8v4m0 0H7m3 0h3"/></g></symbol>
<symbol id="i-phone-disabled" viewBox="0 0 24 24"><path fill="none" stroke="currentColor" stroke-linecap="round" stroke-linejoin="round" stroke-width="1.5" d="m8.78 8.5l.49-2.63L7.815 2H4.064c-1.128 0-2.016.93-1.848 2.046c.288 1.902.957 4.861 2.51 7.7M10.94 13.5c.837.744 1.847 1.392 3.059 2l4.118-.798L22 16.182v3.584c0 1.192-1.032 2.1-2.197 1.847c-2.83-.616-7.83-2.107-11.58-5.432M21 3L3 21"/></symbol>
<symbol id="i-fast-arrow-right-square" viewBox="0 0 24 24"><g fill="none" stroke="currentColor" stroke-width="1.5"><path stroke-linecap="round" stroke-linejoin="round" d="m8 8.5l3.5 3.5L8 15.5m6-7l3.5 3.5l-3.5 3.5"/><path d="M3 20.4V3.6a.6.6 0 0 1 .6-.6h16.8a.6.6 0 0 1 .6.6v16.8a.6.6 0 0 1-.6.6H3.6a.6.6 0 0 1-.6-.6Z"/></g></symbol>
<symbol id="i-sound-high" viewBox="0 0 24 24"><g fill="none" stroke="currentColor" stroke-width="1.5"><path d="M1 13.857v-3.714a2 2 0 0 1 2-2h2.9a1 1 0 0 0 .55-.165l6-3.956a1 1 0 0 1 1.55.835v14.286a1 1 0 0 1-1.55.835l-6-3.956a1 1 0 0 0-.55-.165H3a2 2 0 0 1-2-2Z"/><path stroke-linecap="round" stroke-linejoin="round" d="M17.5 7.5S19 9 19 11.5s-1.5 4-1.5 4m3-11S23 7 23 11.5s-2.5 7-2.5 7"/></g></symbol>
<symbol id="i-chat-minus-in" viewBox="0 0 24 24"><path fill="none" stroke="currentColor" stroke-linecap="round" stroke-linejoin="round" stroke-width="1.5" d="M12 22c5.523 0 10-4.477 10-10S17.523 2 12 2S2 6.477 2 12c0 1.821.487 3.53 1.338 5L2.5 21.5l4.5-.838A9.96 9.96 0 0 0 12 22M9 12h6"/></symbol>
<symbol id="i-arc-3d" viewBox="0 0 24 24"><g fill="none" stroke="currentColor" stroke-linecap="round" stroke-linejoin="round" stroke-width="1.5"><path d="M22 16c0-5.523-4.477-10-10-10S2 10.477 2 16"/><path fill="currentColor" d="M2 17a1 1 0 1 0 0-2a1 1 0 0 0 0 2m20 0a1 1 0 1 0 0-2a1 1 0 0 0 0 2"/></g></symbol>
<symbol id="i-long-arrow-up-right" viewBox="0 0 24 24"><g fill="none" stroke="currentColor" stroke-linecap="round" stroke-linejoin="round" stroke-width="1.5"><path d="m13.25 4.75l3.5 3.5l-3.5 3.5"/><path d="M16.75 8.25h-6a4 4 0 0 0-4 4v7"/></g></symbol>
<symbol id="i-sound-min" viewBox="0 0 24 24"><g fill="none" stroke="currentColor" stroke-width="1.5"><path d="M3.5 13.857v-3.714a2 2 0 0 1 2-2h2.9a1 1 0 0 0 .55-.165l6-3.956a1 1 0 0 1 1.55.835v14.286a1 1 0 0 1-1.55.835l-6-3.956a1 1 0 0 0-.55-.165H5.5a2 2 0 0 1-2-2Z"/><path stroke-linecap="round" d="M20.5 15V9"/></g></symbol>
<symbol id="i-walking" viewBox="0 0 24 24"><g fill="none" stroke="currentColor" stroke-linecap="round" stroke-linejoin="round" stroke-width="1.5"><path d="m12.44 9.127l-1.408 5.635l4.93 6.339m-5.634-2.817L8.215 21.1"/><path d="M8.215 13.353c0-3.944 2.817-4.226 4.226-4.226h1.408c.235 1.174 1.268 3.663 3.522 4.226M13 7a2 2 0 1 0 0-4a2 2 0 0 0 0 4"/></g></symbol>
<symbol id="i-shield-check" viewBox="0 0 24 24"><g fill="none" stroke="currentColor" stroke-linecap="round" stroke-linejoin="round" stroke-width="1.5"><path d="m8.5 11.5l3 3l5-5"/><path d="M5 18L3.13 4.913a.996.996 0 0 1 .774-1.114l7.662-1.703a2 2 0 0 1 .868 0L20.096 3.8c.51.113.848.596.774 1.114L19 18c-.07.495-.5 3.5-7 3.5S5.07 18.495 5 18"/></g></symbol>
<symbol id="i-book-stack" viewBox="0 0 24 24"><g fill="none" stroke="currentColor" stroke-linecap="round" stroke-width="1.5"><path d="M5 19.5V5a2 2 0 0 1 2-2h11.4a.6.6 0 0 1 .6.6V21M9 7h6m-8.5 8H19M6.5 18H19M6.5 21H19"/><path stroke-linejoin="round" d="M6.5 18c-1 0-1.5-.672-1.5-1.5S5.5 15 6.5 15m0 6c-1 0-1.5-.672-1.5-1.5S5.5 18 6.5 18"/></g></symbol>
<symbol id="i-page-minus" viewBox="0 0 24 24"><g fill="none" stroke="currentColor" stroke-linecap="round" stroke-linejoin="round" stroke-width="1.5"><path d="M4 12V2.6a.6.6 0 0 1 .6-.6h11.652a.6.6 0 0 1 .424.176l3.148 3.148A.6.6 0 0 1 20 5.75V21.4a.6.6 0 0 1-.6.6H11"/><path d="M16 2v3.4a.6.6 0 0 0 .6.6H20M1.992 19h6"/></g></symbol>
<symbol id="i-clock-rotate-right" viewBox="0 0 24 24"><g fill="none" stroke="currentColor" stroke-linecap="round" stroke-linejoin="round" stroke-width="1.5"><path d="M12 6v6h6"/><path d="M21.888 10.5C21.164 5.689 17.013 2 12 2C6.477 2 2 6.477 2 12s4.477 10 10 10c4.1 0 7.625-2.468 9.168-6"/><path d="M17 16h4.4a.6.6 0 0 1 .6.6V21"/></g></symbol>
<symbol id="i-long-arrow-right-up" viewBox="0 0 24 24"><g fill="none" stroke="currentColor" stroke-linecap="round" stroke-linejoin="round" stroke-width="1.5"><path d="M19 10.5L15.5 7L12 10.5"/><path d="M15.5 7v6a4 4 0 0 1-4 4h-7"/></g></symbol>
<symbol id="i-arrow-right-circle" viewBox="0 0 24 24"><path fill="none" stroke="currentColor" stroke-linecap="round" stroke-linejoin="round" stroke-width="1.5" d="M8 12h8m0 0l-3.5-3.5M16 12l-3.5 3.5M12 22c5.523 0 10-4.477 10-10S17.523 2 12 2S2 6.477 2 12s4.477 10 10 10"/></symbol>
<symbol id="i-double-check" viewBox="0 0 24 24"><g fill="none" stroke="currentColor" stroke-linecap="round" stroke-width="1.5"><path d="m1.5 12.5l4.076 4.076a.6.6 0 0 0 .848 0L9 14m7-7l-4 4"/><path d="m7 12l4.576 4.576a.6.6 0 0 0 .848 0L22 7"/></g></symbol>
<symbol id="i-arrow-up-circle" viewBox="0 0 24 24"><path fill="none" stroke="currentColor" stroke-linecap="round" stroke-linejoin="round" stroke-width="1.5" d="M12 16V8m0 0l3.5 3.5M12 8l-3.5 3.5M12 22c5.523 0 10-4.477 10-10S17.523 2 12 2S2 6.477 2 12s4.477 10 10 10"/></symbol>
<symbol id="i-timer" viewBox="0 0 24 24"><path fill="none" stroke="currentColor" stroke-linecap="round" stroke-linejoin="round" stroke-width="1.5" d="M9 2h6m-3 8v4m0 8a8 8 0 1 0 0-16a8 8 0 0 0 0 16"/></symbol>
<symbol id="i-chat-plus-in" viewBox="0 0 24 24"><path fill="none" stroke="currentColor" stroke-linecap="round" stroke-linejoin="round" stroke-width="1.5" d="M9 12h3m3 0h-3m0 0V9m0 3v3m0 7c5.523 0 10-4.477 10-10S17.523 2 12 2S2 6.477 2 12c0 1.821.487 3.53 1.338 5L2.5 21.5l4.5-.838A9.96 9.96 0 0 0 12 22"/></symbol>
<symbol id="i-message" viewBox="0 0 24 24"><path fill="none" stroke="currentColor" stroke-width="1.5" d="M3 20.29V5a2 2 0 0 1 2-2h14a2 2 0 0 1 2 2v10a2 2 0 0 1-2 2H7.961a2 2 0 0 0-1.561.75l-2.331 2.914A.6.6 0 0 1 3 20.29Z"/></symbol>
<symbol id="i-user" viewBox="0 0 24 24"><path fill="none" stroke="currentColor" stroke-linecap="round" stroke-linejoin="round" stroke-width="1.5" d="M5 20v-1a7 7 0 0 1 7-7v0a7 7 0 0 1 7 7v1m-7-8a4 4 0 1 0 0-8a4 4 0 0 0 0 8"/></symbol>
<symbol id="i-minus-circle" viewBox="0 0 24 24"><path fill="none" stroke="currentColor" stroke-linecap="round" stroke-linejoin="round" stroke-width="1.5" d="M8 12h8m-4 10c5.523 0 10-4.477 10-10S17.523 2 12 2S2 6.477 2 12s4.477 10 10 10"/></symbol>
<symbol id="i-arrow-down-circle" viewBox="0 0 24 24"><path fill="none" stroke="currentColor" stroke-linecap="round" stroke-linejoin="round" stroke-width="1.5" d="M12 8v8m0 0l3.5-3.5M12 16l-3.5-3.5M12 22c5.523 0 10-4.477 10-10S17.523 2 12 2S2 6.477 2 12s4.477 10 10 10"/></symbol>
<symbol id="i-phone-plus" viewBox="0 0 24 24"><path fill="none" stroke="currentColor" stroke-linecap="round" stroke-linejoin="round" stroke-width="1.5" d="M16.243 5.243h3m3 0h-3m0 0v-3m0 3v3m-1.125 6.459L14 15.5c-2.782-1.396-4.5-3-5.5-5.5l.77-4.13L7.815 2H4.064c-1.128 0-2.016.932-1.847 2.047c.42 2.783 1.66 7.83 5.283 11.453c3.805 3.805 9.286 5.456 12.302 6.113c1.165.253 2.198-.655 2.198-1.848v-3.584z"/></symbol>
<symbol id="i-clock" viewBox="0 0 24 24"><g fill="none" stroke="currentColor" stroke-linecap="round" stroke-linejoin="round" stroke-width="1.5"><path d="M12 6v6h6"/><path d="M12 22c5.523 0 10-4.477 10-10S17.523 2 12 2S2 6.477 2 12s4.477 10 10 10"/></g></symbol>
<symbol id="i-arrow-down" viewBox="0 0 24 24"><path fill="none" stroke="currentColor" stroke-linecap="round" stroke-linejoin="round" stroke-width="1.5" d="M12 3v18m0 0l8.5-8.5M12 21l-8.5-8.5"/></symbol>
<symbol id="i-minus-square-dashed" viewBox="0 0 24 24"><path fill="none" stroke="currentColor" stroke-linecap="round" stroke-linejoin="round" stroke-width="1.5" d="M7 4H4v3m4 5h8M4 11v2m7-9h2m-2 16h2m7-9v2m-3-9h3v3M7 20H4v-3m13 3h3v-3"/></symbol>
<symbol id="i-asterisk" viewBox="0 0 24 24"><path fill="none" stroke="currentColor" stroke-linecap="round" stroke-linejoin="round" stroke-width="1.5" d="M12 22V2m8.572 15.55L3.428 7.249m0 10.301L20.572 7.249"/></symbol>
<symbol id="i-page-star" viewBox="0 0 24 24"><g fill="none" stroke="currentColor" stroke-linecap="round" stroke-linejoin="round" stroke-width="1.5"><path d="M20 12V5.749a.6.6 0 0 0-.176-.425l-3.148-3.148A.6.6 0 0 0 16.252 2H4.6a.6.6 0 0 0-.6.6v18.8a.6.6 0 0 0 .6.6H11M8 10h8M8 6h4m-4 8h3"/><path d="m16.306 17.113l.909-1.927a.312.312 0 0 1 .57 0l.91 1.927l2.032.311c.261.04.365.376.177.568l-1.471 1.5l.347 2.118c.044.272-.229.48-.462.351l-1.818-1l-1.818 1c-.234.129-.506-.079-.462-.351l.347-2.118l-1.47-1.5c-.19-.192-.085-.528.176-.568zM16 2v3.4a.6.6 0 0 0 .6.6H20"/></g></symbol>
<symbol id="i-minus-square" viewBox="0 0 24 24"><path fill="none" stroke="currentColor" stroke-linecap="round" stroke-linejoin="round" stroke-width="1.5" d="M9 12h6m6-8.4v16.8a.6.6 0 0 1-.6.6H3.6a.6.6 0 0 1-.6-.6V3.6a.6.6 0 0 1 .6-.6h16.8a.6.6 0 0 1 .6.6"/></symbol>
<symbol id="i-long-arrow-right-down" viewBox="0 0 24 24"><g fill="none" stroke="currentColor" stroke-linecap="round" stroke-linejoin="round" stroke-width="1.5"><path d="M19 13.5L15.5 17L12 13.5"/><path d="M15.5 17v-6a4 4 0 0 0-4-4h-7"/></g></symbol>
<symbol id="i-long-arrow-down-right" viewBox="0 0 24 24"><g fill="none" stroke="currentColor" stroke-linecap="round" stroke-linejoin="round" stroke-width="1.5"><path d="m13.25 19.25l3.5-3.5l-3.5-3.5"/><path d="M16.75 15.75h-6a4 4 0 0 1-4-4v-7"/></g></symbol>
<symbol id="i-map-pin-minus" viewBox="0 0 24 24"><g fill="none" stroke="currentColor" stroke-width="1.5"><path d="M16 9.2C16 13.177 9 20 9 20S2 13.177 2 9.2C2 5.224 5.134 2 9 2s7 3.224 7 7.2Z"/><path stroke-linecap="round" stroke-linejoin="round" d="M16 19h6"/><path fill="currentColor" stroke-linecap="round" stroke-linejoin="round" d="M9 10a1 1 0 1 0 0-2a1 1 0 0 0 0 2"/></g></symbol>
<symbol id="i-star-solid" viewBox="0 0 24 24"><path fill="currentColor" stroke="currentColor" stroke-linecap="round" stroke-linejoin="round" stroke-width="1.5" d="m8.587 8.236l2.598-5.232a.911.911 0 0 1 1.63 0l2.598 5.232l5.808.844a.902.902 0 0 1 .503 1.542l-4.202 4.07l.992 5.75c.127.738-.653 1.3-1.32.952L12 18.678l-5.195 2.716c-.666.349-1.446-.214-1.319-.953l.992-5.75l-4.202-4.07a.902.902 0 0 1 .503-1.54z"/></symbol>
<symbol id="i-chat-bubble-check" viewBox="0 0 24 24"><g fill="none" stroke="currentColor" stroke-linecap="round" stroke-linejoin="round" stroke-width="1.5"><path d="m8 12l3 3l5-5"/><path d="M12 22c5.523 0 10-4.477 10-10S17.523 2 12 2S2 6.477 2 12c0 1.821.487 3.53 1.338 5L2.5 21.5l4.5-.838A9.96 9.96 0 0 0 12 22"/></g></symbol>
<symbol id="i-map-pin-xmark" viewBox="0 0 24 24"><g fill="none" stroke="currentColor" stroke-width="1.5"><path d="M16 9.2C16 13.177 9 20 9 20S2 13.177 2 9.2C2 5.224 5.134 2 9 2s7 3.224 7 7.2Z"/><path fill="currentColor" stroke-linecap="round" stroke-linejoin="round" d="M9 10a1 1 0 1 0 0-2a1 1 0 0 0 0 2"/><path stroke-linecap="round" stroke-linejoin="round" d="M16.88 21.121L19 19m2.122-2.121L19 19m0 0l-2.12-2.121M19 19l2.122 2.121"/></g></symbol>
<symbol id="i-pin" viewBox="0 0 24 24"><path fill="none" stroke="currentColor" stroke-linecap="round" stroke-linejoin="round" stroke-width="1.5" d="M9.5 14.5L3 21M5 9.485l9.193 9.193l1.697-1.697l-.393-3.787l5.51-4.673l-5.85-5.85l-4.674 5.51l-3.786-.393z"/></symbol>
<symbol id="i-arrow-left-tag" viewBox="0 0 24 24"><g fill="none" stroke="currentColor" stroke-width="1.5"><path stroke-linecap="round" stroke-linejoin="round" d="M16.75 12h-10m0 0l2.75 2.75M6.75 12L9.5 9.25"/><path d="M2 15V9a4 4 0 0 1 4-4h12a4 4 0 0 1 4 4v6a4 4 0 0 1-4 4H6a4 4 0 0 1-4-4Z"/></g></symbol>
<symbol id="i-microphone-check" viewBox="0 0 24 24"><g fill="none" stroke="currentColor" stroke-width="1.5"><path stroke-linecap="round" stroke-linejoin="round" d="m15.5 20.5l2 2l5-5"/><rect width="6" height="12" x="5" y="2" rx="3"/><path stroke-linecap="round" stroke-linejoin="round" d="M1 10v1a7 7 0 0 0 7 7v0a7 7 0 0 0 7-7v-1m-7 8v4m0 0H5m3 0h3"/></g></symbol>
<symbol id="i-bubble-star" viewBox="0 0 24 24"><g fill="none" stroke="currentColor" stroke-linecap="round" stroke-linejoin="round" stroke-width="1.5"><path d="m17.306 4.113l.909-1.927a.312.312 0 0 1 .57 0l.91 1.927l2.032.311c.261.04.365.376.177.568l-1.471 1.5l.347 2.118c.044.272-.229.48-.462.351l-1.818-1l-1.818 1c-.233.128-.506-.079-.462-.351l.347-2.118l-1.47-1.5c-.19-.192-.085-.528.176-.568z"/><path d="M13 2.05Q12.507 2 12 2C6.477 2 2 6.477 2 12c0 1.821.487 3.53 1.338 5L2.5 21.5l4.5-.838A9.96 9.96 0 0 0 12 22c5.523 0 10-4.477 10-10q0-.507-.05-1"/></g></symbol>
</svg>