<?xml version="1.0" standalone="no"?><!DOCTYPE svg PUBLIC "-//W3C//DTD SVG 1.1//EN" "http://www.w3.org/Graphics/SVG/1.1/DTD/svg11.dtd"><svg t="1782207117125" class="icon" viewBox="0 0 1024 1024" version="1.1" xmlns="http://www.w3.org/2000/svg" p-id="4302" xmlns:xlink="http://www.w3.org/1999/xlink" width="200" height="200"><path d="M553.7 753.4h-59.9c-12.8 0-23.3-10.4-23.3-23.3v-52c-10.8-3.4-21.2-7.7-31.2-13l-32.1 32.1c-5.5 5.5-13.2 8.6-21.2 8.6s-15.7-3.2-21.2-8.7l-37.6-37.6c-5.7-5.7-8.8-13.2-8.8-21.2s3.1-15.5 8.8-21.2l32.1-32.1c-5.2-10-9.6-20.4-12.9-31.2H301c-16.5 0-29.9-13.4-29.9-29.9v-53.2c0-16.5 13.4-29.9 29.9-29.9h45.3c3.4-10.8 7.7-21.2 12.9-31.2l-32.1-32.1c-5.7-5.7-8.8-13.2-8.8-21.2s3.1-15.5 8.8-21.2l37.7-37.7c5.5-5.5 13.2-8.6 21.2-8.6s15.7 3.2 21.2 8.7l32 32c10-5.3 20.5-9.6 31.2-13v-52c0-12.8 10.4-23.3 23.3-23.3h59.9c16.5 0 29.9 13.4 29.9 29.9v45.3c10.8 3.4 21.2 7.7 31.2 13l32.1-32.1c5.5-5.5 13.2-8.6 21.2-8.6s15.7 3.2 21.2 8.7l37.6 37.6c5.7 5.7 8.8 13.2 8.8 21.2s-3.1 15.5-8.8 21.2l-32.1 32.1c5.2 10 9.6 20.4 12.9 31.2h45.3c16.5 0 29.9 13.4 29.9 29.9V524c0 16.5-13.4 29.9-29.9 29.9h-45.3c-3.4 10.8-7.7 21.2-12.9 31.2l32.1 32.1c5.7 5.7 8.8 13.2 8.8 21.2s-3.1 15.5-8.8 21.2l-37.7 37.7c-5.5 5.5-13.2 8.6-21.2 8.6s-15.7-3.2-21.2-8.7l-32-32c-10 5.3-20.5 9.6-31.2 13v45.3c0.1 16.5-13.3 29.9-29.8 29.9z m-54-29.2h54l0.8-68.6 11.1-2.7c15.6-3.8 30.5-10 44.2-18.3l9.8-5.9 48 48 38.8-37.6-48-49.1 5.9-9.8c8.3-13.7 14.5-28.6 18.3-44.2l2.7-11.1h67.8l0.8-0.8v-53.2l-68.6-0.8-2.7-11.1c-3.9-15.6-10-30.5-18.3-44.2l-5.9-9.8 48-48-37.6-38.8-49.1 48-9.8-5.9c-13.8-8.3-28.7-14.5-44.2-18.3l-11.1-2.7v-67.8l-54.8-0.7v68.5l-11.1 2.7c-15.6 3.8-30.5 10-44.2 18.3l-9.8 5.9-48-48-38.8 37.6 48 49.1-5.9 9.8c-8.3 13.7-14.5 28.6-18.3 44.2L369 470h-68l-0.8 54 68.6 0.8 2.7 11.1c3.9 15.6 10 30.5 18.3 44.2l5.9 9.8-48 48 37.6 38.8 49.1-48 9.8 5.9c13.8 8.3 28.7 14.5 44.2 18.3l11.1 2.7v68.6z" p-id="4303" fill="#2c2c2c"></path><path d="M527.1 599.5c-56.3 0-102.1-45.8-102.1-102.1s45.8-102.1 102.1-102.1 102.1 45.8 102.1 102.1-45.9 102.1-102.1 102.1z m0-175c-40.2 0-72.9 32.7-72.9 72.9s32.7 72.9 72.9 72.9 72.9-32.7 72.9-72.9-32.7-72.9-72.9-72.9z" p-id="4304" fill="#2c2c2c"></path></svg>